G04 #@! TF.FileFunction,Copper,L2,Bot,Signal*
%FSLAX46Y46*%
G04 Gerber Fmt 4.6, Leading zero omitted, Abs format (unit mm)*
G04 Created by KiCad (PCBNEW 4.0.1-stable) date 2/14/2016 11:26:41 PM*
%MOMM*%
G01*
G04 APERTURE LIST*
%ADD10C,0.100000*%
%ADD11O,3.000000X5.000000*%
%ADD12O,3.000000X4.500000*%
%ADD13O,4.500000X3.000000*%
%ADD14R,1.651000X3.048000*%
%ADD15R,6.300000X6.100000*%
%ADD16R,1.250000X1.500000*%
%ADD17R,0.800000X0.600000*%
%ADD18O,3.600000X2.800000*%
%ADD19C,1.800000*%
%ADD20R,0.800100X0.800100*%
%ADD21R,1.300000X1.500000*%
%ADD22C,0.800000*%
%ADD23C,0.700000*%
%ADD24C,1.500000*%
%ADD25C,0.300000*%
%ADD26C,0.250000*%
%ADD27C,0.500000*%
G04 APERTURE END LIST*
D10*
D11*
X155700000Y-75100000D03*
D12*
X161700000Y-75100000D03*
D13*
X158700000Y-70400000D03*
D14*
X104214000Y-65000000D03*
D15*
X106500000Y-71350000D03*
D14*
X108786000Y-65000000D03*
D16*
X100600000Y-65000000D03*
X100600000Y-67500000D03*
X112450000Y-65000000D03*
X112450000Y-67500000D03*
D17*
X95150000Y-75900000D03*
X97650000Y-75900000D03*
D18*
X77650000Y-73520000D03*
X77650000Y-77480000D03*
D19*
X135450000Y-75750000D03*
X145450000Y-75750000D03*
X142950000Y-75750000D03*
X140450000Y-75750000D03*
X137950000Y-75750000D03*
X91750000Y-75900000D03*
X89250000Y-75900000D03*
X86750000Y-75900000D03*
X117550000Y-75750000D03*
X127550000Y-75750000D03*
X125050000Y-75750000D03*
X122550000Y-75750000D03*
X120050000Y-75750000D03*
X160800000Y-66000000D03*
X160800000Y-63500000D03*
X160800000Y-61000000D03*
X130200000Y-62200000D03*
X117700000Y-62200000D03*
X127700000Y-62200000D03*
X120200000Y-62200000D03*
X122700000Y-62200000D03*
X125200000Y-62200000D03*
X79200000Y-60950000D03*
X79200000Y-63450000D03*
X79200000Y-65950000D03*
X79200000Y-68450000D03*
X149750000Y-62200000D03*
X139750000Y-62200000D03*
X142250000Y-62200000D03*
X144750000Y-62200000D03*
X147250000Y-62200000D03*
D20*
X90350760Y-60050000D03*
X90350760Y-61950000D03*
X88351780Y-61000000D03*
X90350760Y-64600000D03*
X90350760Y-66500000D03*
X88351780Y-65550000D03*
X90300760Y-69100000D03*
X90300760Y-71000000D03*
X88301780Y-70050000D03*
D21*
X80800000Y-73200000D03*
X80800000Y-75900000D03*
X83750000Y-75900000D03*
X83750000Y-73200000D03*
D22*
X102350000Y-65000000D03*
X110650000Y-65000000D03*
X97650000Y-73900000D03*
D23*
X131500000Y-74250000D03*
X91650000Y-64600000D03*
X91750000Y-69050000D03*
D24*
X77200000Y-73520000D02*
X80480000Y-73520000D01*
X80480000Y-73520000D02*
X80800000Y-73200000D01*
X104214000Y-65000000D02*
X102350000Y-65000000D01*
X102350000Y-65000000D02*
X100600000Y-65000000D01*
D25*
X163000000Y-75100000D02*
X159850000Y-75100000D01*
X159000000Y-74250000D02*
X159000000Y-72550000D01*
X159850000Y-75100000D02*
X159000000Y-74250000D01*
X159000000Y-71400000D02*
X159000000Y-72550000D01*
X159000000Y-72550000D02*
X159100000Y-72650000D01*
D24*
X97650000Y-75900000D02*
X97650000Y-73900000D01*
X112450000Y-65000000D02*
X110650000Y-65000000D01*
X110650000Y-65000000D02*
X108786000Y-65000000D01*
X91750000Y-75900000D02*
X95150000Y-75900000D01*
D25*
X127550000Y-75750000D02*
X127550000Y-77250000D01*
X127550000Y-77250000D02*
X128600000Y-78300000D01*
X128600000Y-78300000D02*
X140400000Y-78300000D01*
X140400000Y-78300000D02*
X142950000Y-75750000D01*
X140450000Y-75750000D02*
X140450000Y-74350000D01*
X140450000Y-74350000D02*
X139300000Y-73200000D01*
X139300000Y-73200000D02*
X126100000Y-73200000D01*
X126100000Y-73200000D02*
X125050000Y-74250000D01*
X125050000Y-74250000D02*
X125050000Y-75750000D01*
X131500000Y-74250000D02*
X131550000Y-74200000D01*
X131550000Y-74200000D02*
X136400000Y-74200000D01*
X136400000Y-74200000D02*
X137950000Y-75750000D01*
X86750000Y-75900000D02*
X83750000Y-75900000D01*
X80800000Y-75900000D02*
X83750000Y-75900000D01*
D26*
X90350760Y-60050000D02*
X90350760Y-59999240D01*
D25*
X90350760Y-59999240D02*
X91500000Y-58850000D01*
X114350000Y-58850000D02*
X117700000Y-62200000D01*
X91500000Y-58850000D02*
X114350000Y-58850000D01*
D26*
X144750000Y-62200000D02*
X144750000Y-61700000D01*
D25*
X144750000Y-61700000D02*
X142800000Y-59750000D01*
X142800000Y-59750000D02*
X130150000Y-59750000D01*
X130150000Y-59750000D02*
X127700000Y-62200000D01*
X90350760Y-64600000D02*
X91650000Y-64600000D01*
X91700000Y-69100000D02*
X90300760Y-69100000D01*
X91750000Y-69050000D02*
X91700000Y-69100000D01*
D26*
X142250000Y-62200000D02*
X142250000Y-62500000D01*
D25*
X142250000Y-62500000D02*
X140350000Y-64400000D01*
X140350000Y-64400000D02*
X127400000Y-64400000D01*
X127400000Y-64400000D02*
X125200000Y-62200000D01*
D24*
X79200000Y-63450000D02*
X82600000Y-63450000D01*
X85050000Y-61000000D02*
X88351780Y-61000000D01*
X82600000Y-63450000D02*
X85050000Y-61000000D01*
X79200000Y-65950000D02*
X83600000Y-65950000D01*
X84000000Y-65550000D02*
X88351780Y-65550000D01*
X83600000Y-65950000D02*
X84000000Y-65550000D01*
X79200000Y-68450000D02*
X82650000Y-68450000D01*
X84250000Y-70050000D02*
X88301780Y-70050000D01*
X82650000Y-68450000D02*
X84250000Y-70050000D01*
D27*
G36*
X169384090Y-58921158D02*
X169395000Y-59024959D01*
X169395000Y-78970406D01*
X169384630Y-79076163D01*
X169362514Y-79149416D01*
X169326586Y-79216986D01*
X169278223Y-79276284D01*
X169219259Y-79325064D01*
X169151947Y-79361460D01*
X169078842Y-79384090D01*
X168975040Y-79395000D01*
X158300000Y-79395000D01*
X158300000Y-74200000D01*
X159650000Y-74200000D01*
X159650000Y-74950000D01*
X160595000Y-74950000D01*
X160595000Y-75250000D01*
X159650000Y-75250000D01*
X159650000Y-76000000D01*
X159718654Y-76397053D01*
X159863450Y-76773083D01*
X160078823Y-77113639D01*
X160356497Y-77405634D01*
X160685801Y-77637847D01*
X161054080Y-77801354D01*
X161232016Y-77845869D01*
X161550000Y-77756609D01*
X161550000Y-77193509D01*
X161551468Y-77193653D01*
X161551473Y-77193654D01*
X161551478Y-77193654D01*
X161648660Y-77202498D01*
X161703525Y-77202115D01*
X161758323Y-77202498D01*
X161766730Y-77201674D01*
X161766733Y-77201674D01*
X161766736Y-77201673D01*
X161850000Y-77192922D01*
X161850000Y-77756609D01*
X162167984Y-77845869D01*
X162345920Y-77801354D01*
X162714199Y-77637847D01*
X163043503Y-77405634D01*
X163321177Y-77113639D01*
X163536550Y-76773083D01*
X163681346Y-76397053D01*
X163750000Y-76000000D01*
X163750000Y-75250000D01*
X162805000Y-75250000D01*
X162805000Y-74950000D01*
X163750000Y-74950000D01*
X163750000Y-74200000D01*
X163681346Y-73802947D01*
X163536550Y-73426917D01*
X163321177Y-73086361D01*
X163043503Y-72794366D01*
X162714199Y-72562153D01*
X162345920Y-72398646D01*
X162167984Y-72354131D01*
X161850000Y-72443391D01*
X161850000Y-73006491D01*
X161848529Y-73006347D01*
X161848526Y-73006346D01*
X161848523Y-73006346D01*
X161751340Y-72997502D01*
X161696476Y-72997885D01*
X161641678Y-72997502D01*
X161633271Y-72998326D01*
X161633268Y-72998326D01*
X161633265Y-72998327D01*
X161550000Y-73007078D01*
X161550000Y-72443391D01*
X161232016Y-72354131D01*
X161054080Y-72398646D01*
X160685801Y-72562153D01*
X160356497Y-72794366D01*
X160078823Y-73086361D01*
X159863450Y-73426917D01*
X159718654Y-73802947D01*
X159650000Y-74200000D01*
X158300000Y-74200000D01*
X158300000Y-74100000D01*
X158290102Y-74030352D01*
X158268127Y-73977849D01*
X157568127Y-72727849D01*
X157525460Y-72671917D01*
X157456108Y-72623635D01*
X156893534Y-72359928D01*
X156874305Y-72344021D01*
X156513783Y-72149087D01*
X156307544Y-72085245D01*
X155856108Y-71873635D01*
X155788844Y-71853036D01*
X155750000Y-71850000D01*
X153299612Y-71850000D01*
X121049612Y-71900000D01*
X120979979Y-71910006D01*
X120915891Y-71939015D01*
X120863586Y-71983417D01*
X118763586Y-74333417D01*
X118724557Y-74391946D01*
X118703380Y-74459031D01*
X118700000Y-74500000D01*
X118700000Y-74975533D01*
X118583056Y-74929076D01*
X117762132Y-75750000D01*
X118583056Y-76570924D01*
X118700000Y-76524467D01*
X118700000Y-78393945D01*
X116652387Y-79395000D01*
X88000000Y-79395000D01*
X88000000Y-76933056D01*
X88429076Y-76933056D01*
X88519491Y-77160655D01*
X88779469Y-77278948D01*
X89057529Y-77344248D01*
X89342986Y-77354046D01*
X89624870Y-77307967D01*
X89892347Y-77207780D01*
X89980509Y-77160655D01*
X90070924Y-76933056D01*
X89250000Y-76112132D01*
X88429076Y-76933056D01*
X88000000Y-76933056D01*
X88000000Y-76730337D01*
X88052674Y-76655667D01*
X88216944Y-76720924D01*
X89037868Y-75900000D01*
X89462132Y-75900000D01*
X90283056Y-76720924D01*
X90451371Y-76654060D01*
X90568772Y-76836230D01*
X90773116Y-77047835D01*
X91014670Y-77215719D01*
X91284232Y-77333488D01*
X91571535Y-77396655D01*
X91865635Y-77402816D01*
X92155332Y-77351734D01*
X92417619Y-77250000D01*
X95150000Y-77250000D01*
X95412216Y-77224289D01*
X95664445Y-77148137D01*
X95897079Y-77024444D01*
X96101256Y-76857920D01*
X96269201Y-76654910D01*
X96394515Y-76423146D01*
X96399565Y-76406833D01*
X96401863Y-76414445D01*
X96525556Y-76647079D01*
X96692080Y-76851256D01*
X96895090Y-77019201D01*
X97126854Y-77144515D01*
X97378545Y-77222427D01*
X97640575Y-77249967D01*
X97902965Y-77226088D01*
X98155719Y-77151698D01*
X98389210Y-77029632D01*
X98594546Y-76864538D01*
X98662917Y-76783056D01*
X116729076Y-76783056D01*
X116819491Y-77010655D01*
X117079469Y-77128948D01*
X117357529Y-77194248D01*
X117642986Y-77204046D01*
X117924870Y-77157967D01*
X118192347Y-77057780D01*
X118280509Y-77010655D01*
X118370924Y-76783056D01*
X117550000Y-75962132D01*
X116729076Y-76783056D01*
X98662917Y-76783056D01*
X98763903Y-76662705D01*
X98890833Y-76431822D01*
X98970499Y-76180681D01*
X98999868Y-75918849D01*
X99000000Y-75900000D01*
X99000000Y-75842986D01*
X116095954Y-75842986D01*
X116142033Y-76124870D01*
X116242220Y-76392347D01*
X116289345Y-76480509D01*
X116516944Y-76570924D01*
X117337868Y-75750000D01*
X116516944Y-74929076D01*
X116289345Y-75019491D01*
X116171052Y-75279469D01*
X116105752Y-75557529D01*
X116095954Y-75842986D01*
X99000000Y-75842986D01*
X99000000Y-74716944D01*
X116729076Y-74716944D01*
X117550000Y-75537868D01*
X118370924Y-74716944D01*
X118280509Y-74489345D01*
X118020531Y-74371052D01*
X117742471Y-74305752D01*
X117457014Y-74295954D01*
X117175130Y-74342033D01*
X116907653Y-74442220D01*
X116819491Y-74489345D01*
X116729076Y-74716944D01*
X99000000Y-74716944D01*
X99000000Y-73900000D01*
X98974289Y-73637784D01*
X98898137Y-73385555D01*
X98774444Y-73152921D01*
X98607920Y-72948744D01*
X98404910Y-72780799D01*
X98173146Y-72655485D01*
X97921455Y-72577573D01*
X97659425Y-72550033D01*
X97397035Y-72573912D01*
X97144281Y-72648302D01*
X96910790Y-72770368D01*
X96705454Y-72935462D01*
X96536097Y-73137295D01*
X96409167Y-73368178D01*
X96329501Y-73619319D01*
X96300132Y-73881151D01*
X96300000Y-73900000D01*
X96300000Y-75199750D01*
X96279632Y-75160790D01*
X96114538Y-74955454D01*
X95912705Y-74786097D01*
X95681822Y-74659167D01*
X95430681Y-74579501D01*
X95168849Y-74550132D01*
X95150000Y-74550000D01*
X92409454Y-74550000D01*
X92195708Y-74460149D01*
X91907551Y-74400999D01*
X91613393Y-74398945D01*
X91324439Y-74454066D01*
X91051693Y-74564263D01*
X90805546Y-74725337D01*
X90595373Y-74931153D01*
X90448961Y-75144983D01*
X90283056Y-75079076D01*
X89462132Y-75900000D01*
X89037868Y-75900000D01*
X88216944Y-75079076D01*
X88049692Y-75145518D01*
X87918041Y-74947369D01*
X87838176Y-74866944D01*
X88429076Y-74866944D01*
X89250000Y-75687868D01*
X90070924Y-74866944D01*
X89980509Y-74639345D01*
X89720531Y-74521052D01*
X89442471Y-74455752D01*
X89157014Y-74445954D01*
X88875130Y-74492033D01*
X88607653Y-74592220D01*
X88519491Y-74639345D01*
X88429076Y-74866944D01*
X87838176Y-74866944D01*
X87710762Y-74738638D01*
X87573390Y-74645979D01*
X87416357Y-74374741D01*
X87372894Y-74319425D01*
X87315742Y-74278406D01*
X87249425Y-74254934D01*
X87200000Y-74250000D01*
X84861026Y-74250000D01*
X84887404Y-74210522D01*
X84928864Y-74110429D01*
X84950000Y-74004170D01*
X84950000Y-73487500D01*
X84812500Y-73350000D01*
X83900000Y-73350000D01*
X83900000Y-73370000D01*
X83600000Y-73370000D01*
X83600000Y-73350000D01*
X83580000Y-73350000D01*
X83580000Y-73050000D01*
X83600000Y-73050000D01*
X83600000Y-73030000D01*
X83900000Y-73030000D01*
X83900000Y-73050000D01*
X84812500Y-73050000D01*
X84950000Y-72912500D01*
X84950000Y-72400000D01*
X88900000Y-72400000D01*
X88949029Y-72395145D01*
X89449029Y-72295145D01*
X89515384Y-72271781D01*
X89572602Y-72230855D01*
X89616154Y-72175609D01*
X89642590Y-72110417D01*
X89650000Y-72050000D01*
X89650000Y-71891519D01*
X89740281Y-71928914D01*
X89846539Y-71950050D01*
X90013260Y-71950050D01*
X90150760Y-71812550D01*
X90150760Y-71150000D01*
X90450760Y-71150000D01*
X90450760Y-71812550D01*
X90588260Y-71950050D01*
X90754981Y-71950050D01*
X90861239Y-71928914D01*
X90961333Y-71887454D01*
X91051415Y-71827263D01*
X91128023Y-71750654D01*
X91188214Y-71660572D01*
X91229674Y-71560479D01*
X91250810Y-71454220D01*
X91250810Y-71287500D01*
X91113310Y-71150000D01*
X90450760Y-71150000D01*
X90150760Y-71150000D01*
X90130760Y-71150000D01*
X90130760Y-70850000D01*
X90150760Y-70850000D01*
X90150760Y-70830000D01*
X90450760Y-70830000D01*
X90450760Y-70850000D01*
X91113310Y-70850000D01*
X91250810Y-70712500D01*
X91250810Y-70545780D01*
X91229674Y-70439521D01*
X91188214Y-70339428D01*
X91150000Y-70282237D01*
X91150000Y-69893225D01*
X91186840Y-69850000D01*
X91236395Y-69850000D01*
X91284291Y-69883289D01*
X91455013Y-69957876D01*
X91636972Y-69997882D01*
X91823236Y-70001784D01*
X92006710Y-69969432D01*
X92103174Y-69932016D01*
X155954131Y-69932016D01*
X156043391Y-70250000D01*
X156606491Y-70250000D01*
X156606346Y-70251477D01*
X156597502Y-70348660D01*
X156597885Y-70403525D01*
X156597502Y-70458323D01*
X156598326Y-70466730D01*
X156607078Y-70550000D01*
X156043391Y-70550000D01*
X155954131Y-70867984D01*
X155998646Y-71045920D01*
X156162153Y-71414199D01*
X156394366Y-71743503D01*
X156686361Y-72021177D01*
X157026917Y-72236550D01*
X157402947Y-72381346D01*
X157800000Y-72450000D01*
X158550000Y-72450000D01*
X158550000Y-71505000D01*
X158850000Y-71505000D01*
X158850000Y-72450000D01*
X159600000Y-72450000D01*
X159997053Y-72381346D01*
X160373083Y-72236550D01*
X160713639Y-72021177D01*
X161005634Y-71743503D01*
X161237847Y-71414199D01*
X161401354Y-71045920D01*
X161445869Y-70867984D01*
X161356609Y-70550000D01*
X160793509Y-70550000D01*
X160793654Y-70548522D01*
X160802498Y-70451340D01*
X160802115Y-70396476D01*
X160802498Y-70341678D01*
X160801674Y-70333271D01*
X160792922Y-70250000D01*
X161356609Y-70250000D01*
X161445869Y-69932016D01*
X161401354Y-69754080D01*
X161237847Y-69385801D01*
X161005634Y-69056497D01*
X160713639Y-68778823D01*
X160373083Y-68563450D01*
X159997053Y-68418654D01*
X159600000Y-68350000D01*
X158850000Y-68350000D01*
X158850000Y-69295000D01*
X158550000Y-69295000D01*
X158550000Y-68350000D01*
X157800000Y-68350000D01*
X157402947Y-68418654D01*
X157026917Y-68563450D01*
X156686361Y-68778823D01*
X156394366Y-69056497D01*
X156162153Y-69385801D01*
X155998646Y-69754080D01*
X155954131Y-69932016D01*
X92103174Y-69932016D01*
X92180406Y-69902060D01*
X92337709Y-69802233D01*
X92472625Y-69673753D01*
X92580017Y-69521515D01*
X92655794Y-69351318D01*
X92697070Y-69169643D01*
X92700041Y-68956848D01*
X92663854Y-68774091D01*
X92592859Y-68601844D01*
X92489760Y-68446667D01*
X92358483Y-68314470D01*
X92204029Y-68210290D01*
X92032282Y-68138094D01*
X91849783Y-68100632D01*
X91663482Y-68099332D01*
X91480478Y-68134242D01*
X91307739Y-68204033D01*
X91154814Y-68304104D01*
X91152558Y-68300681D01*
X91023440Y-68190635D01*
X90868775Y-68120916D01*
X90700810Y-68097047D01*
X89900710Y-68097047D01*
X89805162Y-68104666D01*
X89650000Y-68152717D01*
X89650000Y-67787500D01*
X99425000Y-67787500D01*
X99425000Y-68304170D01*
X99446136Y-68410429D01*
X99487596Y-68510522D01*
X99547787Y-68600604D01*
X99624395Y-68677213D01*
X99714477Y-68737404D01*
X99814571Y-68778864D01*
X99920829Y-68800000D01*
X100312500Y-68800000D01*
X100450000Y-68662500D01*
X100450000Y-67650000D01*
X100750000Y-67650000D01*
X100750000Y-68662500D01*
X100887500Y-68800000D01*
X101279171Y-68800000D01*
X101385429Y-68778864D01*
X101485523Y-68737404D01*
X101575605Y-68677213D01*
X101652213Y-68600604D01*
X101712404Y-68510522D01*
X101753864Y-68410429D01*
X101775000Y-68304170D01*
X101775000Y-67787500D01*
X101637500Y-67650000D01*
X100750000Y-67650000D01*
X100450000Y-67650000D01*
X99562500Y-67650000D01*
X99425000Y-67787500D01*
X89650000Y-67787500D01*
X89650000Y-67360602D01*
X89690187Y-67387454D01*
X89790281Y-67428914D01*
X89896539Y-67450050D01*
X90063260Y-67450050D01*
X90200760Y-67312550D01*
X90200760Y-66650000D01*
X90500760Y-66650000D01*
X90500760Y-67312550D01*
X90638260Y-67450050D01*
X90804981Y-67450050D01*
X90911239Y-67428914D01*
X91011333Y-67387454D01*
X91101415Y-67327263D01*
X91178023Y-67250654D01*
X91238214Y-67160572D01*
X91279674Y-67060479D01*
X91300810Y-66954220D01*
X91300810Y-66787500D01*
X91163310Y-66650000D01*
X90500760Y-66650000D01*
X90200760Y-66650000D01*
X90180760Y-66650000D01*
X90180760Y-66350000D01*
X90200760Y-66350000D01*
X90200760Y-66330000D01*
X90500760Y-66330000D01*
X90500760Y-66350000D01*
X91163310Y-66350000D01*
X91300810Y-66212500D01*
X91300810Y-66045780D01*
X91279674Y-65939521D01*
X91238214Y-65839428D01*
X91200000Y-65782237D01*
X91200000Y-65440152D01*
X91355013Y-65507876D01*
X91536972Y-65547882D01*
X91723236Y-65551784D01*
X91906710Y-65519432D01*
X92080406Y-65452060D01*
X92237709Y-65352233D01*
X92372625Y-65223753D01*
X92480017Y-65071515D01*
X92555794Y-64901318D01*
X92597070Y-64719643D01*
X92600041Y-64506848D01*
X92563854Y-64324091D01*
X92492859Y-64151844D01*
X92389760Y-63996667D01*
X92258483Y-63864470D01*
X92104029Y-63760290D01*
X91932282Y-63688094D01*
X91749783Y-63650632D01*
X91563482Y-63649332D01*
X91380478Y-63684242D01*
X91207739Y-63754033D01*
X91173847Y-63776211D01*
X91073440Y-63690635D01*
X90918775Y-63620916D01*
X90750810Y-63597047D01*
X89950710Y-63597047D01*
X89855162Y-63604666D01*
X89693103Y-63654853D01*
X89650000Y-63683256D01*
X89650000Y-62810602D01*
X89690187Y-62837454D01*
X89790281Y-62878914D01*
X89896539Y-62900050D01*
X90063260Y-62900050D01*
X90200760Y-62762550D01*
X90200760Y-62100000D01*
X90500760Y-62100000D01*
X90500760Y-62762550D01*
X90638260Y-62900050D01*
X90804981Y-62900050D01*
X90911239Y-62878914D01*
X91011333Y-62837454D01*
X91101415Y-62777263D01*
X91178023Y-62700654D01*
X91238214Y-62610572D01*
X91279674Y-62510479D01*
X91300810Y-62404220D01*
X91300810Y-62237500D01*
X91163310Y-62100000D01*
X90500760Y-62100000D01*
X90200760Y-62100000D01*
X90180760Y-62100000D01*
X90180760Y-61800000D01*
X90200760Y-61800000D01*
X90200760Y-61780000D01*
X90500760Y-61780000D01*
X90500760Y-61800000D01*
X91163310Y-61800000D01*
X91300810Y-61662500D01*
X91300810Y-61495780D01*
X91279674Y-61389521D01*
X91238214Y-61289428D01*
X91211869Y-61250000D01*
X97835016Y-61250000D01*
X98300000Y-61792481D01*
X98300000Y-65450000D01*
X98309898Y-65519648D01*
X98338807Y-65583782D01*
X98365015Y-65618168D01*
X99365015Y-66718168D01*
X99419189Y-66763046D01*
X99425000Y-66765568D01*
X99425000Y-67212500D01*
X99562500Y-67350000D01*
X100450000Y-67350000D01*
X100450000Y-67330000D01*
X100750000Y-67330000D01*
X100750000Y-67350000D01*
X101637500Y-67350000D01*
X101750185Y-67237315D01*
X102826051Y-68279560D01*
X102882962Y-68320912D01*
X102949140Y-68344772D01*
X103000000Y-68350000D01*
X109850000Y-68350000D01*
X109919648Y-68340102D01*
X109983782Y-68311193D01*
X110050775Y-68248962D01*
X110393149Y-67787500D01*
X111275000Y-67787500D01*
X111275000Y-68304170D01*
X111296136Y-68410429D01*
X111337596Y-68510522D01*
X111397787Y-68600604D01*
X111474395Y-68677213D01*
X111564477Y-68737404D01*
X111664571Y-68778864D01*
X111770829Y-68800000D01*
X112162500Y-68800000D01*
X112300000Y-68662500D01*
X112300000Y-67650000D01*
X112600000Y-67650000D01*
X112600000Y-68662500D01*
X112737500Y-68800000D01*
X113129171Y-68800000D01*
X113235429Y-68778864D01*
X113335523Y-68737404D01*
X113425605Y-68677213D01*
X113502213Y-68600604D01*
X113562404Y-68510522D01*
X113603864Y-68410429D01*
X113625000Y-68304170D01*
X113625000Y-67787500D01*
X113487500Y-67650000D01*
X112600000Y-67650000D01*
X112300000Y-67650000D01*
X111412500Y-67650000D01*
X111275000Y-67787500D01*
X110393149Y-67787500D01*
X111125811Y-66800000D01*
X111275000Y-66800000D01*
X111275000Y-67212500D01*
X111412500Y-67350000D01*
X112300000Y-67350000D01*
X112300000Y-67330000D01*
X112600000Y-67330000D01*
X112600000Y-67350000D01*
X113487500Y-67350000D01*
X113625000Y-67212500D01*
X113625000Y-67033056D01*
X159979076Y-67033056D01*
X160069491Y-67260655D01*
X160329469Y-67378948D01*
X160607529Y-67444248D01*
X160892986Y-67454046D01*
X161174870Y-67407967D01*
X161442347Y-67307780D01*
X161530509Y-67260655D01*
X161620924Y-67033056D01*
X160800000Y-66212132D01*
X159979076Y-67033056D01*
X113625000Y-67033056D01*
X113625000Y-66787518D01*
X113694687Y-66753877D01*
X114625943Y-66092986D01*
X159345954Y-66092986D01*
X159392033Y-66374870D01*
X159492220Y-66642347D01*
X159539345Y-66730509D01*
X159766944Y-66820924D01*
X160587868Y-66000000D01*
X161012132Y-66000000D01*
X161833056Y-66820924D01*
X162060655Y-66730509D01*
X162178948Y-66470531D01*
X162244248Y-66192471D01*
X162254046Y-65907014D01*
X162207967Y-65625130D01*
X162107780Y-65357653D01*
X162060655Y-65269491D01*
X161833056Y-65179076D01*
X161012132Y-66000000D01*
X160587868Y-66000000D01*
X159766944Y-65179076D01*
X159539345Y-65269491D01*
X159421052Y-65529469D01*
X159355752Y-65807529D01*
X159345954Y-66092986D01*
X114625943Y-66092986D01*
X115179874Y-65699874D01*
X146550397Y-65650000D01*
X146620030Y-65639991D01*
X146668879Y-65619927D01*
X148518879Y-64619927D01*
X148575443Y-64578101D01*
X148618115Y-64522172D01*
X148643516Y-64456570D01*
X148650000Y-64400000D01*
X148650000Y-63233056D01*
X148929076Y-63233056D01*
X149019491Y-63460655D01*
X149279469Y-63578948D01*
X149557529Y-63644248D01*
X149842986Y-63654046D01*
X150124870Y-63607967D01*
X150392347Y-63507780D01*
X150480509Y-63460655D01*
X150570924Y-63233056D01*
X149750000Y-62412132D01*
X148929076Y-63233056D01*
X148650000Y-63233056D01*
X148650000Y-62994330D01*
X148716944Y-63020924D01*
X149537868Y-62200000D01*
X149962132Y-62200000D01*
X150783056Y-63020924D01*
X151010655Y-62930509D01*
X151128948Y-62670531D01*
X151194248Y-62392471D01*
X151204046Y-62107014D01*
X151157967Y-61825130D01*
X151057780Y-61557653D01*
X151010655Y-61469491D01*
X150783056Y-61379076D01*
X149962132Y-62200000D01*
X149537868Y-62200000D01*
X148716944Y-61379076D01*
X148650000Y-61405670D01*
X148650000Y-61166944D01*
X148929076Y-61166944D01*
X149750000Y-61987868D01*
X150570924Y-61166944D01*
X150554709Y-61126124D01*
X159298028Y-61126124D01*
X159351131Y-61415457D01*
X159459420Y-61688965D01*
X159618772Y-61936230D01*
X159823116Y-62147835D01*
X159970384Y-62250189D01*
X159855546Y-62325337D01*
X159645373Y-62531153D01*
X159479180Y-62773873D01*
X159363296Y-63044251D01*
X159302135Y-63331988D01*
X159298028Y-63626124D01*
X159351131Y-63915457D01*
X159459420Y-64188965D01*
X159618772Y-64436230D01*
X159823116Y-64647835D01*
X160044672Y-64801820D01*
X159979076Y-64966944D01*
X160800000Y-65787868D01*
X161620924Y-64966944D01*
X161553891Y-64798204D01*
X161727961Y-64687736D01*
X161940987Y-64484873D01*
X162110553Y-64244498D01*
X162230201Y-63975765D01*
X162295373Y-63688910D01*
X162295662Y-63668165D01*
X165297371Y-63668165D01*
X165368174Y-64053942D01*
X165512560Y-64418619D01*
X165725029Y-64748306D01*
X165997488Y-65030446D01*
X166319560Y-65254291D01*
X166678976Y-65411316D01*
X167062046Y-65495540D01*
X167454180Y-65503754D01*
X167840442Y-65435646D01*
X168206118Y-65293809D01*
X168537281Y-65083647D01*
X168821316Y-64813164D01*
X169047404Y-64492664D01*
X169206934Y-64134353D01*
X169293830Y-63751879D01*
X169300086Y-63303890D01*
X169223903Y-62919139D01*
X169074439Y-62556514D01*
X168857388Y-62229825D01*
X168581016Y-61951517D01*
X168255851Y-61732190D01*
X167894278Y-61580199D01*
X167510068Y-61501332D01*
X167117858Y-61498594D01*
X166732585Y-61572089D01*
X166368925Y-61719017D01*
X166040729Y-61933782D01*
X165760498Y-62208205D01*
X165538907Y-62531831D01*
X165384395Y-62892334D01*
X165302847Y-63275983D01*
X165297371Y-63668165D01*
X162295662Y-63668165D01*
X162300064Y-63352917D01*
X162242927Y-63064355D01*
X162130830Y-62792385D01*
X161968041Y-62547369D01*
X161760762Y-62338638D01*
X161629592Y-62250163D01*
X161727961Y-62187736D01*
X161940987Y-61984873D01*
X162110553Y-61744498D01*
X162230201Y-61475765D01*
X162295373Y-61188910D01*
X162300064Y-60852917D01*
X162242927Y-60564355D01*
X162130830Y-60292385D01*
X161968041Y-60047369D01*
X161760762Y-59838638D01*
X161516888Y-59674143D01*
X161245708Y-59560149D01*
X160957551Y-59500999D01*
X160663393Y-59498945D01*
X160374439Y-59554066D01*
X160101693Y-59664263D01*
X159855546Y-59825337D01*
X159645373Y-60031153D01*
X159479180Y-60273873D01*
X159363296Y-60544251D01*
X159302135Y-60831988D01*
X159298028Y-61126124D01*
X150554709Y-61126124D01*
X150480509Y-60939345D01*
X150220531Y-60821052D01*
X149942471Y-60755752D01*
X149657014Y-60745954D01*
X149375130Y-60792033D01*
X149107653Y-60892220D01*
X149019491Y-60939345D01*
X148929076Y-61166944D01*
X148650000Y-61166944D01*
X148650000Y-60423275D01*
X150634874Y-58900000D01*
X169377541Y-58900000D01*
X169384090Y-58921158D01*
X169384090Y-58921158D01*
G37*
X169384090Y-58921158D02*
X169395000Y-59024959D01*
X169395000Y-78970406D01*
X169384630Y-79076163D01*
X169362514Y-79149416D01*
X169326586Y-79216986D01*
X169278223Y-79276284D01*
X169219259Y-79325064D01*
X169151947Y-79361460D01*
X169078842Y-79384090D01*
X168975040Y-79395000D01*
X158300000Y-79395000D01*
X158300000Y-74200000D01*
X159650000Y-74200000D01*
X159650000Y-74950000D01*
X160595000Y-74950000D01*
X160595000Y-75250000D01*
X159650000Y-75250000D01*
X159650000Y-76000000D01*
X159718654Y-76397053D01*
X159863450Y-76773083D01*
X160078823Y-77113639D01*
X160356497Y-77405634D01*
X160685801Y-77637847D01*
X161054080Y-77801354D01*
X161232016Y-77845869D01*
X161550000Y-77756609D01*
X161550000Y-77193509D01*
X161551468Y-77193653D01*
X161551473Y-77193654D01*
X161551478Y-77193654D01*
X161648660Y-77202498D01*
X161703525Y-77202115D01*
X161758323Y-77202498D01*
X161766730Y-77201674D01*
X161766733Y-77201674D01*
X161766736Y-77201673D01*
X161850000Y-77192922D01*
X161850000Y-77756609D01*
X162167984Y-77845869D01*
X162345920Y-77801354D01*
X162714199Y-77637847D01*
X163043503Y-77405634D01*
X163321177Y-77113639D01*
X163536550Y-76773083D01*
X163681346Y-76397053D01*
X163750000Y-76000000D01*
X163750000Y-75250000D01*
X162805000Y-75250000D01*
X162805000Y-74950000D01*
X163750000Y-74950000D01*
X163750000Y-74200000D01*
X163681346Y-73802947D01*
X163536550Y-73426917D01*
X163321177Y-73086361D01*
X163043503Y-72794366D01*
X162714199Y-72562153D01*
X162345920Y-72398646D01*
X162167984Y-72354131D01*
X161850000Y-72443391D01*
X161850000Y-73006491D01*
X161848529Y-73006347D01*
X161848526Y-73006346D01*
X161848523Y-73006346D01*
X161751340Y-72997502D01*
X161696476Y-72997885D01*
X161641678Y-72997502D01*
X161633271Y-72998326D01*
X161633268Y-72998326D01*
X161633265Y-72998327D01*
X161550000Y-73007078D01*
X161550000Y-72443391D01*
X161232016Y-72354131D01*
X161054080Y-72398646D01*
X160685801Y-72562153D01*
X160356497Y-72794366D01*
X160078823Y-73086361D01*
X159863450Y-73426917D01*
X159718654Y-73802947D01*
X159650000Y-74200000D01*
X158300000Y-74200000D01*
X158300000Y-74100000D01*
X158290102Y-74030352D01*
X158268127Y-73977849D01*
X157568127Y-72727849D01*
X157525460Y-72671917D01*
X157456108Y-72623635D01*
X156893534Y-72359928D01*
X156874305Y-72344021D01*
X156513783Y-72149087D01*
X156307544Y-72085245D01*
X155856108Y-71873635D01*
X155788844Y-71853036D01*
X155750000Y-71850000D01*
X153299612Y-71850000D01*
X121049612Y-71900000D01*
X120979979Y-71910006D01*
X120915891Y-71939015D01*
X120863586Y-71983417D01*
X118763586Y-74333417D01*
X118724557Y-74391946D01*
X118703380Y-74459031D01*
X118700000Y-74500000D01*
X118700000Y-74975533D01*
X118583056Y-74929076D01*
X117762132Y-75750000D01*
X118583056Y-76570924D01*
X118700000Y-76524467D01*
X118700000Y-78393945D01*
X116652387Y-79395000D01*
X88000000Y-79395000D01*
X88000000Y-76933056D01*
X88429076Y-76933056D01*
X88519491Y-77160655D01*
X88779469Y-77278948D01*
X89057529Y-77344248D01*
X89342986Y-77354046D01*
X89624870Y-77307967D01*
X89892347Y-77207780D01*
X89980509Y-77160655D01*
X90070924Y-76933056D01*
X89250000Y-76112132D01*
X88429076Y-76933056D01*
X88000000Y-76933056D01*
X88000000Y-76730337D01*
X88052674Y-76655667D01*
X88216944Y-76720924D01*
X89037868Y-75900000D01*
X89462132Y-75900000D01*
X90283056Y-76720924D01*
X90451371Y-76654060D01*
X90568772Y-76836230D01*
X90773116Y-77047835D01*
X91014670Y-77215719D01*
X91284232Y-77333488D01*
X91571535Y-77396655D01*
X91865635Y-77402816D01*
X92155332Y-77351734D01*
X92417619Y-77250000D01*
X95150000Y-77250000D01*
X95412216Y-77224289D01*
X95664445Y-77148137D01*
X95897079Y-77024444D01*
X96101256Y-76857920D01*
X96269201Y-76654910D01*
X96394515Y-76423146D01*
X96399565Y-76406833D01*
X96401863Y-76414445D01*
X96525556Y-76647079D01*
X96692080Y-76851256D01*
X96895090Y-77019201D01*
X97126854Y-77144515D01*
X97378545Y-77222427D01*
X97640575Y-77249967D01*
X97902965Y-77226088D01*
X98155719Y-77151698D01*
X98389210Y-77029632D01*
X98594546Y-76864538D01*
X98662917Y-76783056D01*
X116729076Y-76783056D01*
X116819491Y-77010655D01*
X117079469Y-77128948D01*
X117357529Y-77194248D01*
X117642986Y-77204046D01*
X117924870Y-77157967D01*
X118192347Y-77057780D01*
X118280509Y-77010655D01*
X118370924Y-76783056D01*
X117550000Y-75962132D01*
X116729076Y-76783056D01*
X98662917Y-76783056D01*
X98763903Y-76662705D01*
X98890833Y-76431822D01*
X98970499Y-76180681D01*
X98999868Y-75918849D01*
X99000000Y-75900000D01*
X99000000Y-75842986D01*
X116095954Y-75842986D01*
X116142033Y-76124870D01*
X116242220Y-76392347D01*
X116289345Y-76480509D01*
X116516944Y-76570924D01*
X117337868Y-75750000D01*
X116516944Y-74929076D01*
X116289345Y-75019491D01*
X116171052Y-75279469D01*
X116105752Y-75557529D01*
X116095954Y-75842986D01*
X99000000Y-75842986D01*
X99000000Y-74716944D01*
X116729076Y-74716944D01*
X117550000Y-75537868D01*
X118370924Y-74716944D01*
X118280509Y-74489345D01*
X118020531Y-74371052D01*
X117742471Y-74305752D01*
X117457014Y-74295954D01*
X117175130Y-74342033D01*
X116907653Y-74442220D01*
X116819491Y-74489345D01*
X116729076Y-74716944D01*
X99000000Y-74716944D01*
X99000000Y-73900000D01*
X98974289Y-73637784D01*
X98898137Y-73385555D01*
X98774444Y-73152921D01*
X98607920Y-72948744D01*
X98404910Y-72780799D01*
X98173146Y-72655485D01*
X97921455Y-72577573D01*
X97659425Y-72550033D01*
X97397035Y-72573912D01*
X97144281Y-72648302D01*
X96910790Y-72770368D01*
X96705454Y-72935462D01*
X96536097Y-73137295D01*
X96409167Y-73368178D01*
X96329501Y-73619319D01*
X96300132Y-73881151D01*
X96300000Y-73900000D01*
X96300000Y-75199750D01*
X96279632Y-75160790D01*
X96114538Y-74955454D01*
X95912705Y-74786097D01*
X95681822Y-74659167D01*
X95430681Y-74579501D01*
X95168849Y-74550132D01*
X95150000Y-74550000D01*
X92409454Y-74550000D01*
X92195708Y-74460149D01*
X91907551Y-74400999D01*
X91613393Y-74398945D01*
X91324439Y-74454066D01*
X91051693Y-74564263D01*
X90805546Y-74725337D01*
X90595373Y-74931153D01*
X90448961Y-75144983D01*
X90283056Y-75079076D01*
X89462132Y-75900000D01*
X89037868Y-75900000D01*
X88216944Y-75079076D01*
X88049692Y-75145518D01*
X87918041Y-74947369D01*
X87838176Y-74866944D01*
X88429076Y-74866944D01*
X89250000Y-75687868D01*
X90070924Y-74866944D01*
X89980509Y-74639345D01*
X89720531Y-74521052D01*
X89442471Y-74455752D01*
X89157014Y-74445954D01*
X88875130Y-74492033D01*
X88607653Y-74592220D01*
X88519491Y-74639345D01*
X88429076Y-74866944D01*
X87838176Y-74866944D01*
X87710762Y-74738638D01*
X87573390Y-74645979D01*
X87416357Y-74374741D01*
X87372894Y-74319425D01*
X87315742Y-74278406D01*
X87249425Y-74254934D01*
X87200000Y-74250000D01*
X84861026Y-74250000D01*
X84887404Y-74210522D01*
X84928864Y-74110429D01*
X84950000Y-74004170D01*
X84950000Y-73487500D01*
X84812500Y-73350000D01*
X83900000Y-73350000D01*
X83900000Y-73370000D01*
X83600000Y-73370000D01*
X83600000Y-73350000D01*
X83580000Y-73350000D01*
X83580000Y-73050000D01*
X83600000Y-73050000D01*
X83600000Y-73030000D01*
X83900000Y-73030000D01*
X83900000Y-73050000D01*
X84812500Y-73050000D01*
X84950000Y-72912500D01*
X84950000Y-72400000D01*
X88900000Y-72400000D01*
X88949029Y-72395145D01*
X89449029Y-72295145D01*
X89515384Y-72271781D01*
X89572602Y-72230855D01*
X89616154Y-72175609D01*
X89642590Y-72110417D01*
X89650000Y-72050000D01*
X89650000Y-71891519D01*
X89740281Y-71928914D01*
X89846539Y-71950050D01*
X90013260Y-71950050D01*
X90150760Y-71812550D01*
X90150760Y-71150000D01*
X90450760Y-71150000D01*
X90450760Y-71812550D01*
X90588260Y-71950050D01*
X90754981Y-71950050D01*
X90861239Y-71928914D01*
X90961333Y-71887454D01*
X91051415Y-71827263D01*
X91128023Y-71750654D01*
X91188214Y-71660572D01*
X91229674Y-71560479D01*
X91250810Y-71454220D01*
X91250810Y-71287500D01*
X91113310Y-71150000D01*
X90450760Y-71150000D01*
X90150760Y-71150000D01*
X90130760Y-71150000D01*
X90130760Y-70850000D01*
X90150760Y-70850000D01*
X90150760Y-70830000D01*
X90450760Y-70830000D01*
X90450760Y-70850000D01*
X91113310Y-70850000D01*
X91250810Y-70712500D01*
X91250810Y-70545780D01*
X91229674Y-70439521D01*
X91188214Y-70339428D01*
X91150000Y-70282237D01*
X91150000Y-69893225D01*
X91186840Y-69850000D01*
X91236395Y-69850000D01*
X91284291Y-69883289D01*
X91455013Y-69957876D01*
X91636972Y-69997882D01*
X91823236Y-70001784D01*
X92006710Y-69969432D01*
X92103174Y-69932016D01*
X155954131Y-69932016D01*
X156043391Y-70250000D01*
X156606491Y-70250000D01*
X156606346Y-70251477D01*
X156597502Y-70348660D01*
X156597885Y-70403525D01*
X156597502Y-70458323D01*
X156598326Y-70466730D01*
X156607078Y-70550000D01*
X156043391Y-70550000D01*
X155954131Y-70867984D01*
X155998646Y-71045920D01*
X156162153Y-71414199D01*
X156394366Y-71743503D01*
X156686361Y-72021177D01*
X157026917Y-72236550D01*
X157402947Y-72381346D01*
X157800000Y-72450000D01*
X158550000Y-72450000D01*
X158550000Y-71505000D01*
X158850000Y-71505000D01*
X158850000Y-72450000D01*
X159600000Y-72450000D01*
X159997053Y-72381346D01*
X160373083Y-72236550D01*
X160713639Y-72021177D01*
X161005634Y-71743503D01*
X161237847Y-71414199D01*
X161401354Y-71045920D01*
X161445869Y-70867984D01*
X161356609Y-70550000D01*
X160793509Y-70550000D01*
X160793654Y-70548522D01*
X160802498Y-70451340D01*
X160802115Y-70396476D01*
X160802498Y-70341678D01*
X160801674Y-70333271D01*
X160792922Y-70250000D01*
X161356609Y-70250000D01*
X161445869Y-69932016D01*
X161401354Y-69754080D01*
X161237847Y-69385801D01*
X161005634Y-69056497D01*
X160713639Y-68778823D01*
X160373083Y-68563450D01*
X159997053Y-68418654D01*
X159600000Y-68350000D01*
X158850000Y-68350000D01*
X158850000Y-69295000D01*
X158550000Y-69295000D01*
X158550000Y-68350000D01*
X157800000Y-68350000D01*
X157402947Y-68418654D01*
X157026917Y-68563450D01*
X156686361Y-68778823D01*
X156394366Y-69056497D01*
X156162153Y-69385801D01*
X155998646Y-69754080D01*
X155954131Y-69932016D01*
X92103174Y-69932016D01*
X92180406Y-69902060D01*
X92337709Y-69802233D01*
X92472625Y-69673753D01*
X92580017Y-69521515D01*
X92655794Y-69351318D01*
X92697070Y-69169643D01*
X92700041Y-68956848D01*
X92663854Y-68774091D01*
X92592859Y-68601844D01*
X92489760Y-68446667D01*
X92358483Y-68314470D01*
X92204029Y-68210290D01*
X92032282Y-68138094D01*
X91849783Y-68100632D01*
X91663482Y-68099332D01*
X91480478Y-68134242D01*
X91307739Y-68204033D01*
X91154814Y-68304104D01*
X91152558Y-68300681D01*
X91023440Y-68190635D01*
X90868775Y-68120916D01*
X90700810Y-68097047D01*
X89900710Y-68097047D01*
X89805162Y-68104666D01*
X89650000Y-68152717D01*
X89650000Y-67787500D01*
X99425000Y-67787500D01*
X99425000Y-68304170D01*
X99446136Y-68410429D01*
X99487596Y-68510522D01*
X99547787Y-68600604D01*
X99624395Y-68677213D01*
X99714477Y-68737404D01*
X99814571Y-68778864D01*
X99920829Y-68800000D01*
X100312500Y-68800000D01*
X100450000Y-68662500D01*
X100450000Y-67650000D01*
X100750000Y-67650000D01*
X100750000Y-68662500D01*
X100887500Y-68800000D01*
X101279171Y-68800000D01*
X101385429Y-68778864D01*
X101485523Y-68737404D01*
X101575605Y-68677213D01*
X101652213Y-68600604D01*
X101712404Y-68510522D01*
X101753864Y-68410429D01*
X101775000Y-68304170D01*
X101775000Y-67787500D01*
X101637500Y-67650000D01*
X100750000Y-67650000D01*
X100450000Y-67650000D01*
X99562500Y-67650000D01*
X99425000Y-67787500D01*
X89650000Y-67787500D01*
X89650000Y-67360602D01*
X89690187Y-67387454D01*
X89790281Y-67428914D01*
X89896539Y-67450050D01*
X90063260Y-67450050D01*
X90200760Y-67312550D01*
X90200760Y-66650000D01*
X90500760Y-66650000D01*
X90500760Y-67312550D01*
X90638260Y-67450050D01*
X90804981Y-67450050D01*
X90911239Y-67428914D01*
X91011333Y-67387454D01*
X91101415Y-67327263D01*
X91178023Y-67250654D01*
X91238214Y-67160572D01*
X91279674Y-67060479D01*
X91300810Y-66954220D01*
X91300810Y-66787500D01*
X91163310Y-66650000D01*
X90500760Y-66650000D01*
X90200760Y-66650000D01*
X90180760Y-66650000D01*
X90180760Y-66350000D01*
X90200760Y-66350000D01*
X90200760Y-66330000D01*
X90500760Y-66330000D01*
X90500760Y-66350000D01*
X91163310Y-66350000D01*
X91300810Y-66212500D01*
X91300810Y-66045780D01*
X91279674Y-65939521D01*
X91238214Y-65839428D01*
X91200000Y-65782237D01*
X91200000Y-65440152D01*
X91355013Y-65507876D01*
X91536972Y-65547882D01*
X91723236Y-65551784D01*
X91906710Y-65519432D01*
X92080406Y-65452060D01*
X92237709Y-65352233D01*
X92372625Y-65223753D01*
X92480017Y-65071515D01*
X92555794Y-64901318D01*
X92597070Y-64719643D01*
X92600041Y-64506848D01*
X92563854Y-64324091D01*
X92492859Y-64151844D01*
X92389760Y-63996667D01*
X92258483Y-63864470D01*
X92104029Y-63760290D01*
X91932282Y-63688094D01*
X91749783Y-63650632D01*
X91563482Y-63649332D01*
X91380478Y-63684242D01*
X91207739Y-63754033D01*
X91173847Y-63776211D01*
X91073440Y-63690635D01*
X90918775Y-63620916D01*
X90750810Y-63597047D01*
X89950710Y-63597047D01*
X89855162Y-63604666D01*
X89693103Y-63654853D01*
X89650000Y-63683256D01*
X89650000Y-62810602D01*
X89690187Y-62837454D01*
X89790281Y-62878914D01*
X89896539Y-62900050D01*
X90063260Y-62900050D01*
X90200760Y-62762550D01*
X90200760Y-62100000D01*
X90500760Y-62100000D01*
X90500760Y-62762550D01*
X90638260Y-62900050D01*
X90804981Y-62900050D01*
X90911239Y-62878914D01*
X91011333Y-62837454D01*
X91101415Y-62777263D01*
X91178023Y-62700654D01*
X91238214Y-62610572D01*
X91279674Y-62510479D01*
X91300810Y-62404220D01*
X91300810Y-62237500D01*
X91163310Y-62100000D01*
X90500760Y-62100000D01*
X90200760Y-62100000D01*
X90180760Y-62100000D01*
X90180760Y-61800000D01*
X90200760Y-61800000D01*
X90200760Y-61780000D01*
X90500760Y-61780000D01*
X90500760Y-61800000D01*
X91163310Y-61800000D01*
X91300810Y-61662500D01*
X91300810Y-61495780D01*
X91279674Y-61389521D01*
X91238214Y-61289428D01*
X91211869Y-61250000D01*
X97835016Y-61250000D01*
X98300000Y-61792481D01*
X98300000Y-65450000D01*
X98309898Y-65519648D01*
X98338807Y-65583782D01*
X98365015Y-65618168D01*
X99365015Y-66718168D01*
X99419189Y-66763046D01*
X99425000Y-66765568D01*
X99425000Y-67212500D01*
X99562500Y-67350000D01*
X100450000Y-67350000D01*
X100450000Y-67330000D01*
X100750000Y-67330000D01*
X100750000Y-67350000D01*
X101637500Y-67350000D01*
X101750185Y-67237315D01*
X102826051Y-68279560D01*
X102882962Y-68320912D01*
X102949140Y-68344772D01*
X103000000Y-68350000D01*
X109850000Y-68350000D01*
X109919648Y-68340102D01*
X109983782Y-68311193D01*
X110050775Y-68248962D01*
X110393149Y-67787500D01*
X111275000Y-67787500D01*
X111275000Y-68304170D01*
X111296136Y-68410429D01*
X111337596Y-68510522D01*
X111397787Y-68600604D01*
X111474395Y-68677213D01*
X111564477Y-68737404D01*
X111664571Y-68778864D01*
X111770829Y-68800000D01*
X112162500Y-68800000D01*
X112300000Y-68662500D01*
X112300000Y-67650000D01*
X112600000Y-67650000D01*
X112600000Y-68662500D01*
X112737500Y-68800000D01*
X113129171Y-68800000D01*
X113235429Y-68778864D01*
X113335523Y-68737404D01*
X113425605Y-68677213D01*
X113502213Y-68600604D01*
X113562404Y-68510522D01*
X113603864Y-68410429D01*
X113625000Y-68304170D01*
X113625000Y-67787500D01*
X113487500Y-67650000D01*
X112600000Y-67650000D01*
X112300000Y-67650000D01*
X111412500Y-67650000D01*
X111275000Y-67787500D01*
X110393149Y-67787500D01*
X111125811Y-66800000D01*
X111275000Y-66800000D01*
X111275000Y-67212500D01*
X111412500Y-67350000D01*
X112300000Y-67350000D01*
X112300000Y-67330000D01*
X112600000Y-67330000D01*
X112600000Y-67350000D01*
X113487500Y-67350000D01*
X113625000Y-67212500D01*
X113625000Y-67033056D01*
X159979076Y-67033056D01*
X160069491Y-67260655D01*
X160329469Y-67378948D01*
X160607529Y-67444248D01*
X160892986Y-67454046D01*
X161174870Y-67407967D01*
X161442347Y-67307780D01*
X161530509Y-67260655D01*
X161620924Y-67033056D01*
X160800000Y-66212132D01*
X159979076Y-67033056D01*
X113625000Y-67033056D01*
X113625000Y-66787518D01*
X113694687Y-66753877D01*
X114625943Y-66092986D01*
X159345954Y-66092986D01*
X159392033Y-66374870D01*
X159492220Y-66642347D01*
X159539345Y-66730509D01*
X159766944Y-66820924D01*
X160587868Y-66000000D01*
X161012132Y-66000000D01*
X161833056Y-66820924D01*
X162060655Y-66730509D01*
X162178948Y-66470531D01*
X162244248Y-66192471D01*
X162254046Y-65907014D01*
X162207967Y-65625130D01*
X162107780Y-65357653D01*
X162060655Y-65269491D01*
X161833056Y-65179076D01*
X161012132Y-66000000D01*
X160587868Y-66000000D01*
X159766944Y-65179076D01*
X159539345Y-65269491D01*
X159421052Y-65529469D01*
X159355752Y-65807529D01*
X159345954Y-66092986D01*
X114625943Y-66092986D01*
X115179874Y-65699874D01*
X146550397Y-65650000D01*
X146620030Y-65639991D01*
X146668879Y-65619927D01*
X148518879Y-64619927D01*
X148575443Y-64578101D01*
X148618115Y-64522172D01*
X148643516Y-64456570D01*
X148650000Y-64400000D01*
X148650000Y-63233056D01*
X148929076Y-63233056D01*
X149019491Y-63460655D01*
X149279469Y-63578948D01*
X149557529Y-63644248D01*
X149842986Y-63654046D01*
X150124870Y-63607967D01*
X150392347Y-63507780D01*
X150480509Y-63460655D01*
X150570924Y-63233056D01*
X149750000Y-62412132D01*
X148929076Y-63233056D01*
X148650000Y-63233056D01*
X148650000Y-62994330D01*
X148716944Y-63020924D01*
X149537868Y-62200000D01*
X149962132Y-62200000D01*
X150783056Y-63020924D01*
X151010655Y-62930509D01*
X151128948Y-62670531D01*
X151194248Y-62392471D01*
X151204046Y-62107014D01*
X151157967Y-61825130D01*
X151057780Y-61557653D01*
X151010655Y-61469491D01*
X150783056Y-61379076D01*
X149962132Y-62200000D01*
X149537868Y-62200000D01*
X148716944Y-61379076D01*
X148650000Y-61405670D01*
X148650000Y-61166944D01*
X148929076Y-61166944D01*
X149750000Y-61987868D01*
X150570924Y-61166944D01*
X150554709Y-61126124D01*
X159298028Y-61126124D01*
X159351131Y-61415457D01*
X159459420Y-61688965D01*
X159618772Y-61936230D01*
X159823116Y-62147835D01*
X159970384Y-62250189D01*
X159855546Y-62325337D01*
X159645373Y-62531153D01*
X159479180Y-62773873D01*
X159363296Y-63044251D01*
X159302135Y-63331988D01*
X159298028Y-63626124D01*
X159351131Y-63915457D01*
X159459420Y-64188965D01*
X159618772Y-64436230D01*
X159823116Y-64647835D01*
X160044672Y-64801820D01*
X159979076Y-64966944D01*
X160800000Y-65787868D01*
X161620924Y-64966944D01*
X161553891Y-64798204D01*
X161727961Y-64687736D01*
X161940987Y-64484873D01*
X162110553Y-64244498D01*
X162230201Y-63975765D01*
X162295373Y-63688910D01*
X162295662Y-63668165D01*
X165297371Y-63668165D01*
X165368174Y-64053942D01*
X165512560Y-64418619D01*
X165725029Y-64748306D01*
X165997488Y-65030446D01*
X166319560Y-65254291D01*
X166678976Y-65411316D01*
X167062046Y-65495540D01*
X167454180Y-65503754D01*
X167840442Y-65435646D01*
X168206118Y-65293809D01*
X168537281Y-65083647D01*
X168821316Y-64813164D01*
X169047404Y-64492664D01*
X169206934Y-64134353D01*
X169293830Y-63751879D01*
X169300086Y-63303890D01*
X169223903Y-62919139D01*
X169074439Y-62556514D01*
X168857388Y-62229825D01*
X168581016Y-61951517D01*
X168255851Y-61732190D01*
X167894278Y-61580199D01*
X167510068Y-61501332D01*
X167117858Y-61498594D01*
X166732585Y-61572089D01*
X166368925Y-61719017D01*
X166040729Y-61933782D01*
X165760498Y-62208205D01*
X165538907Y-62531831D01*
X165384395Y-62892334D01*
X165302847Y-63275983D01*
X165297371Y-63668165D01*
X162295662Y-63668165D01*
X162300064Y-63352917D01*
X162242927Y-63064355D01*
X162130830Y-62792385D01*
X161968041Y-62547369D01*
X161760762Y-62338638D01*
X161629592Y-62250163D01*
X161727961Y-62187736D01*
X161940987Y-61984873D01*
X162110553Y-61744498D01*
X162230201Y-61475765D01*
X162295373Y-61188910D01*
X162300064Y-60852917D01*
X162242927Y-60564355D01*
X162130830Y-60292385D01*
X161968041Y-60047369D01*
X161760762Y-59838638D01*
X161516888Y-59674143D01*
X161245708Y-59560149D01*
X160957551Y-59500999D01*
X160663393Y-59498945D01*
X160374439Y-59554066D01*
X160101693Y-59664263D01*
X159855546Y-59825337D01*
X159645373Y-60031153D01*
X159479180Y-60273873D01*
X159363296Y-60544251D01*
X159302135Y-60831988D01*
X159298028Y-61126124D01*
X150554709Y-61126124D01*
X150480509Y-60939345D01*
X150220531Y-60821052D01*
X149942471Y-60755752D01*
X149657014Y-60745954D01*
X149375130Y-60792033D01*
X149107653Y-60892220D01*
X149019491Y-60939345D01*
X148929076Y-61166944D01*
X148650000Y-61166944D01*
X148650000Y-60423275D01*
X150634874Y-58900000D01*
X169377541Y-58900000D01*
X169384090Y-58921158D01*
M02*
