G04 #@! TF.FileFunction,Legend,Top*
%FSLAX46Y46*%
G04 Gerber Fmt 4.6, Leading zero omitted, Abs format (unit mm)*
G04 Created by KiCad (PCBNEW 4.0.1-stable) date 2/14/2016 11:26:41 PM*
%MOMM*%
G01*
G04 APERTURE LIST*
%ADD10C,0.100000*%
%ADD11C,0.300000*%
%ADD12C,0.150000*%
%ADD13C,0.250000*%
%ADD14C,0.002540*%
G04 APERTURE END LIST*
D10*
D11*
X96335714Y-71685714D02*
X96192856Y-71614286D01*
X95907142Y-71614286D01*
X95764285Y-71685714D01*
X95621428Y-71828571D01*
X95549999Y-71971429D01*
X95549999Y-72257143D01*
X95621428Y-72400000D01*
X95764285Y-72542857D01*
X95907142Y-72614286D01*
X96192856Y-72614286D01*
X96335714Y-72542857D01*
X96049999Y-71114286D02*
X95692856Y-71185714D01*
X95335714Y-71400000D01*
X95121428Y-71757143D01*
X95049999Y-72114286D01*
X95121428Y-72471429D01*
X95335714Y-72828571D01*
X95692856Y-73042857D01*
X96049999Y-73114286D01*
X96407142Y-73042857D01*
X96764285Y-72828571D01*
X96978571Y-72471429D01*
X97049999Y-72114286D01*
X96978571Y-71757143D01*
X96764285Y-71400000D01*
X96407142Y-71185714D01*
X96049999Y-71114286D01*
X97692857Y-72828571D02*
X97692857Y-71328571D01*
X98550000Y-72828571D01*
X98550000Y-71328571D01*
X99264286Y-72828571D02*
X99264286Y-71828571D01*
X99264286Y-71328571D02*
X99192857Y-71400000D01*
X99264286Y-71471429D01*
X99335714Y-71400000D01*
X99264286Y-71328571D01*
X99264286Y-71471429D01*
X100621429Y-71828571D02*
X100621429Y-73042857D01*
X100550000Y-73185714D01*
X100478572Y-73257143D01*
X100335715Y-73328571D01*
X100121429Y-73328571D01*
X99978572Y-73257143D01*
X100621429Y-72757143D02*
X100478572Y-72828571D01*
X100192858Y-72828571D01*
X100050000Y-72757143D01*
X99978572Y-72685714D01*
X99907143Y-72542857D01*
X99907143Y-72114286D01*
X99978572Y-71971429D01*
X100050000Y-71900000D01*
X100192858Y-71828571D01*
X100478572Y-71828571D01*
X100621429Y-71900000D01*
X101335715Y-72828571D02*
X101335715Y-71328571D01*
X101978572Y-72828571D02*
X101978572Y-72042857D01*
X101907143Y-71900000D01*
X101764286Y-71828571D01*
X101550001Y-71828571D01*
X101407143Y-71900000D01*
X101335715Y-71971429D01*
X102478572Y-71828571D02*
X103050001Y-71828571D01*
X102692858Y-71328571D02*
X102692858Y-72614286D01*
X102764286Y-72757143D01*
X102907144Y-72828571D01*
X103050001Y-72828571D01*
X103550001Y-72828571D02*
X103550001Y-71828571D01*
X103550001Y-71971429D02*
X103621429Y-71900000D01*
X103764287Y-71828571D01*
X103978572Y-71828571D01*
X104121429Y-71900000D01*
X104192858Y-72042857D01*
X104192858Y-72828571D01*
X104192858Y-72042857D02*
X104264287Y-71900000D01*
X104407144Y-71828571D01*
X104621429Y-71828571D01*
X104764287Y-71900000D01*
X104835715Y-72042857D01*
X104835715Y-72828571D01*
X106121429Y-72757143D02*
X105978572Y-72828571D01*
X105692858Y-72828571D01*
X105550001Y-72757143D01*
X105478572Y-72614286D01*
X105478572Y-72042857D01*
X105550001Y-71900000D01*
X105692858Y-71828571D01*
X105978572Y-71828571D01*
X106121429Y-71900000D01*
X106192858Y-72042857D01*
X106192858Y-72185714D01*
X105478572Y-72328571D01*
X107478572Y-72757143D02*
X107335715Y-72828571D01*
X107050001Y-72828571D01*
X106907143Y-72757143D01*
X106835715Y-72685714D01*
X106764286Y-72542857D01*
X106764286Y-72114286D01*
X106835715Y-71971429D01*
X106907143Y-71900000D01*
X107050001Y-71828571D01*
X107335715Y-71828571D01*
X107478572Y-71900000D01*
X108121429Y-72828571D02*
X108121429Y-71328571D01*
X108764286Y-72828571D02*
X108764286Y-72042857D01*
X108692857Y-71900000D01*
X108550000Y-71828571D01*
X108335715Y-71828571D01*
X108192857Y-71900000D01*
X108121429Y-71971429D01*
X110121429Y-72828571D02*
X110121429Y-72042857D01*
X110050000Y-71900000D01*
X109907143Y-71828571D01*
X109621429Y-71828571D01*
X109478572Y-71900000D01*
X110121429Y-72757143D02*
X109978572Y-72828571D01*
X109621429Y-72828571D01*
X109478572Y-72757143D01*
X109407143Y-72614286D01*
X109407143Y-72471429D01*
X109478572Y-72328571D01*
X109621429Y-72257143D01*
X109978572Y-72257143D01*
X110121429Y-72185714D01*
X110835715Y-71828571D02*
X110835715Y-72828571D01*
X110835715Y-71971429D02*
X110907143Y-71900000D01*
X111050001Y-71828571D01*
X111264286Y-71828571D01*
X111407143Y-71900000D01*
X111478572Y-72042857D01*
X111478572Y-72828571D01*
X112192858Y-72828571D02*
X112192858Y-71828571D01*
X112192858Y-71328571D02*
X112121429Y-71400000D01*
X112192858Y-71471429D01*
X112264286Y-71400000D01*
X112192858Y-71328571D01*
X112192858Y-71471429D01*
X113550001Y-72757143D02*
X113407144Y-72828571D01*
X113121430Y-72828571D01*
X112978572Y-72757143D01*
X112907144Y-72685714D01*
X112835715Y-72542857D01*
X112835715Y-72114286D01*
X112907144Y-71971429D01*
X112978572Y-71900000D01*
X113121430Y-71828571D01*
X113407144Y-71828571D01*
X113550001Y-71900000D01*
X106871429Y-73871429D02*
X106942858Y-73800000D01*
X107085715Y-73728571D01*
X107442858Y-73728571D01*
X107585715Y-73800000D01*
X107657144Y-73871429D01*
X107728572Y-74014286D01*
X107728572Y-74157143D01*
X107657144Y-74371429D01*
X106800001Y-75228571D01*
X107728572Y-75228571D01*
X108657143Y-73728571D02*
X108800000Y-73728571D01*
X108942857Y-73800000D01*
X109014286Y-73871429D01*
X109085715Y-74014286D01*
X109157143Y-74300000D01*
X109157143Y-74657143D01*
X109085715Y-74942857D01*
X109014286Y-75085714D01*
X108942857Y-75157143D01*
X108800000Y-75228571D01*
X108657143Y-75228571D01*
X108514286Y-75157143D01*
X108442857Y-75085714D01*
X108371429Y-74942857D01*
X108300000Y-74657143D01*
X108300000Y-74300000D01*
X108371429Y-74014286D01*
X108442857Y-73871429D01*
X108514286Y-73800000D01*
X108657143Y-73728571D01*
X110585714Y-75228571D02*
X109728571Y-75228571D01*
X110157143Y-75228571D02*
X110157143Y-73728571D01*
X110014286Y-73942857D01*
X109871428Y-74085714D01*
X109728571Y-74157143D01*
X111871428Y-73728571D02*
X111585714Y-73728571D01*
X111442857Y-73800000D01*
X111371428Y-73871429D01*
X111228571Y-74085714D01*
X111157142Y-74371429D01*
X111157142Y-74942857D01*
X111228571Y-75085714D01*
X111299999Y-75157143D01*
X111442857Y-75228571D01*
X111728571Y-75228571D01*
X111871428Y-75157143D01*
X111942857Y-75085714D01*
X112014285Y-74942857D01*
X112014285Y-74585714D01*
X111942857Y-74442857D01*
X111871428Y-74371429D01*
X111728571Y-74300000D01*
X111442857Y-74300000D01*
X111299999Y-74371429D01*
X111228571Y-74442857D01*
X111157142Y-74585714D01*
X100971429Y-67278571D02*
X100257143Y-67278571D01*
X100257143Y-65778571D01*
X101471429Y-67278571D02*
X101471429Y-66278571D01*
X101471429Y-65778571D02*
X101400000Y-65850000D01*
X101471429Y-65921429D01*
X101542857Y-65850000D01*
X101471429Y-65778571D01*
X101471429Y-65921429D01*
X102828572Y-66278571D02*
X102828572Y-67492857D01*
X102757143Y-67635714D01*
X102685715Y-67707143D01*
X102542858Y-67778571D01*
X102328572Y-67778571D01*
X102185715Y-67707143D01*
X102828572Y-67207143D02*
X102685715Y-67278571D01*
X102400001Y-67278571D01*
X102257143Y-67207143D01*
X102185715Y-67135714D01*
X102114286Y-66992857D01*
X102114286Y-66564286D01*
X102185715Y-66421429D01*
X102257143Y-66350000D01*
X102400001Y-66278571D01*
X102685715Y-66278571D01*
X102828572Y-66350000D01*
X103542858Y-67278571D02*
X103542858Y-65778571D01*
X104185715Y-67278571D02*
X104185715Y-66492857D01*
X104114286Y-66350000D01*
X103971429Y-66278571D01*
X103757144Y-66278571D01*
X103614286Y-66350000D01*
X103542858Y-66421429D01*
X104685715Y-66278571D02*
X105257144Y-66278571D01*
X104900001Y-65778571D02*
X104900001Y-67064286D01*
X104971429Y-67207143D01*
X105114287Y-67278571D01*
X105257144Y-67278571D01*
X106828572Y-67207143D02*
X107042858Y-67278571D01*
X107400001Y-67278571D01*
X107542858Y-67207143D01*
X107614287Y-67135714D01*
X107685715Y-66992857D01*
X107685715Y-66850000D01*
X107614287Y-66707143D01*
X107542858Y-66635714D01*
X107400001Y-66564286D01*
X107114287Y-66492857D01*
X106971429Y-66421429D01*
X106900001Y-66350000D01*
X106828572Y-66207143D01*
X106828572Y-66064286D01*
X106900001Y-65921429D01*
X106971429Y-65850000D01*
X107114287Y-65778571D01*
X107471429Y-65778571D01*
X107685715Y-65850000D01*
X108971429Y-67278571D02*
X108971429Y-66492857D01*
X108900000Y-66350000D01*
X108757143Y-66278571D01*
X108471429Y-66278571D01*
X108328572Y-66350000D01*
X108971429Y-67207143D02*
X108828572Y-67278571D01*
X108471429Y-67278571D01*
X108328572Y-67207143D01*
X108257143Y-67064286D01*
X108257143Y-66921429D01*
X108328572Y-66778571D01*
X108471429Y-66707143D01*
X108828572Y-66707143D01*
X108971429Y-66635714D01*
X109685715Y-67278571D02*
X109685715Y-65778571D01*
X109685715Y-66350000D02*
X109828572Y-66278571D01*
X110114286Y-66278571D01*
X110257143Y-66350000D01*
X110328572Y-66421429D01*
X110400001Y-66564286D01*
X110400001Y-66992857D01*
X110328572Y-67135714D01*
X110257143Y-67207143D01*
X110114286Y-67278571D01*
X109828572Y-67278571D01*
X109685715Y-67207143D01*
X111614286Y-67207143D02*
X111471429Y-67278571D01*
X111185715Y-67278571D01*
X111042858Y-67207143D01*
X110971429Y-67064286D01*
X110971429Y-66492857D01*
X111042858Y-66350000D01*
X111185715Y-66278571D01*
X111471429Y-66278571D01*
X111614286Y-66350000D01*
X111685715Y-66492857D01*
X111685715Y-66635714D01*
X110971429Y-66778571D01*
X112328572Y-67278571D02*
X112328572Y-66278571D01*
X112328572Y-66564286D02*
X112400000Y-66421429D01*
X112471429Y-66350000D01*
X112614286Y-66278571D01*
X112757143Y-66278571D01*
X98114286Y-69250000D02*
X98828572Y-69250000D01*
X97971429Y-69678571D02*
X98471429Y-68178571D01*
X98971429Y-69678571D01*
X100114286Y-68678571D02*
X100114286Y-69678571D01*
X99471429Y-68678571D02*
X99471429Y-69464286D01*
X99542857Y-69607143D01*
X99685715Y-69678571D01*
X99900000Y-69678571D01*
X100042857Y-69607143D01*
X100114286Y-69535714D01*
X100685715Y-69678571D02*
X101471429Y-68678571D01*
X100685715Y-68678571D02*
X101471429Y-69678571D01*
X102042858Y-69678571D02*
X102042858Y-68678571D01*
X102042858Y-68178571D02*
X101971429Y-68250000D01*
X102042858Y-68321429D01*
X102114286Y-68250000D01*
X102042858Y-68178571D01*
X102042858Y-68321429D01*
X102971430Y-69678571D02*
X102828572Y-69607143D01*
X102757144Y-69464286D01*
X102757144Y-68178571D01*
X103542858Y-69678571D02*
X103542858Y-68678571D01*
X103542858Y-68178571D02*
X103471429Y-68250000D01*
X103542858Y-68321429D01*
X103614286Y-68250000D01*
X103542858Y-68178571D01*
X103542858Y-68321429D01*
X104900001Y-69678571D02*
X104900001Y-68892857D01*
X104828572Y-68750000D01*
X104685715Y-68678571D01*
X104400001Y-68678571D01*
X104257144Y-68750000D01*
X104900001Y-69607143D02*
X104757144Y-69678571D01*
X104400001Y-69678571D01*
X104257144Y-69607143D01*
X104185715Y-69464286D01*
X104185715Y-69321429D01*
X104257144Y-69178571D01*
X104400001Y-69107143D01*
X104757144Y-69107143D01*
X104900001Y-69035714D01*
X105614287Y-69678571D02*
X105614287Y-68678571D01*
X105614287Y-68964286D02*
X105685715Y-68821429D01*
X105757144Y-68750000D01*
X105900001Y-68678571D01*
X106042858Y-68678571D01*
X106400001Y-68678571D02*
X106757144Y-69678571D01*
X107114286Y-68678571D02*
X106757144Y-69678571D01*
X106614286Y-70035714D01*
X106542858Y-70107143D01*
X106400001Y-70178571D01*
X109328572Y-68892857D02*
X109542858Y-68964286D01*
X109614286Y-69035714D01*
X109685715Y-69178571D01*
X109685715Y-69392857D01*
X109614286Y-69535714D01*
X109542858Y-69607143D01*
X109400000Y-69678571D01*
X108828572Y-69678571D01*
X108828572Y-68178571D01*
X109328572Y-68178571D01*
X109471429Y-68250000D01*
X109542858Y-68321429D01*
X109614286Y-68464286D01*
X109614286Y-68607143D01*
X109542858Y-68750000D01*
X109471429Y-68821429D01*
X109328572Y-68892857D01*
X108828572Y-68892857D01*
X110542858Y-69678571D02*
X110400000Y-69607143D01*
X110328572Y-69535714D01*
X110257143Y-69392857D01*
X110257143Y-68964286D01*
X110328572Y-68821429D01*
X110400000Y-68750000D01*
X110542858Y-68678571D01*
X110757143Y-68678571D01*
X110900000Y-68750000D01*
X110971429Y-68821429D01*
X111042858Y-68964286D01*
X111042858Y-69392857D01*
X110971429Y-69535714D01*
X110900000Y-69607143D01*
X110757143Y-69678571D01*
X110542858Y-69678571D01*
X112328572Y-69678571D02*
X112328572Y-68892857D01*
X112257143Y-68750000D01*
X112114286Y-68678571D01*
X111828572Y-68678571D01*
X111685715Y-68750000D01*
X112328572Y-69607143D02*
X112185715Y-69678571D01*
X111828572Y-69678571D01*
X111685715Y-69607143D01*
X111614286Y-69464286D01*
X111614286Y-69321429D01*
X111685715Y-69178571D01*
X111828572Y-69107143D01*
X112185715Y-69107143D01*
X112328572Y-69035714D01*
X113042858Y-69678571D02*
X113042858Y-68678571D01*
X113042858Y-68964286D02*
X113114286Y-68821429D01*
X113185715Y-68750000D01*
X113328572Y-68678571D01*
X113471429Y-68678571D01*
X114614286Y-69678571D02*
X114614286Y-68178571D01*
X114614286Y-69607143D02*
X114471429Y-69678571D01*
X114185715Y-69678571D01*
X114042857Y-69607143D01*
X113971429Y-69535714D01*
X113900000Y-69392857D01*
X113900000Y-68964286D01*
X113971429Y-68821429D01*
X114042857Y-68750000D01*
X114185715Y-68678571D01*
X114471429Y-68678571D01*
X114614286Y-68750000D01*
D12*
X165900500Y-79600880D02*
X165900500Y-70599120D01*
X169400620Y-79600880D02*
X169400620Y-70599120D01*
X169400620Y-70599120D02*
X154899760Y-70599120D01*
X154899760Y-70599120D02*
X154899760Y-79600880D01*
X154899760Y-79600880D02*
X169400620Y-79600880D01*
D13*
X79950000Y-79600000D02*
X79950000Y-71400000D01*
X70650000Y-79600000D02*
X79950000Y-79600000D01*
X79950000Y-71400000D02*
X70650000Y-71400000D01*
D12*
X142250000Y-79050000D02*
X142050000Y-79550000D01*
X142050000Y-79550000D02*
X138850000Y-79550000D01*
X138850000Y-79550000D02*
X138650000Y-79050000D01*
X132850000Y-72450000D02*
X132850000Y-79050000D01*
X132850000Y-79050000D02*
X148050000Y-79050000D01*
X148050000Y-79050000D02*
X148050000Y-72450000D01*
X148050000Y-72450000D02*
X132850000Y-72450000D01*
X91050000Y-79200000D02*
X90850000Y-79700000D01*
X90850000Y-79700000D02*
X87650000Y-79700000D01*
X87650000Y-79700000D02*
X87450000Y-79200000D01*
X84150000Y-72600000D02*
X84150000Y-79200000D01*
X84150000Y-79200000D02*
X94350000Y-79200000D01*
X94350000Y-79200000D02*
X94350000Y-72600000D01*
X94350000Y-72600000D02*
X84150000Y-72600000D01*
X124350000Y-79050000D02*
X124150000Y-79550000D01*
X124150000Y-79550000D02*
X120950000Y-79550000D01*
X120950000Y-79550000D02*
X120750000Y-79050000D01*
X114950000Y-72450000D02*
X114950000Y-79050000D01*
X114950000Y-79050000D02*
X130150000Y-79050000D01*
X130150000Y-79050000D02*
X130150000Y-72450000D01*
X130150000Y-72450000D02*
X114950000Y-72450000D01*
X169300000Y-58400000D02*
X157300000Y-58400000D01*
X157300000Y-58400000D02*
X157300000Y-68600000D01*
X157300000Y-68600000D02*
X169300000Y-68600000D01*
X122150000Y-58900000D02*
X122350000Y-58400000D01*
X122350000Y-58400000D02*
X125550000Y-58400000D01*
X125550000Y-58400000D02*
X125750000Y-58900000D01*
X132850000Y-65500000D02*
X132850000Y-58900000D01*
X132850000Y-58900000D02*
X115050000Y-58900000D01*
X115050000Y-58900000D02*
X115050000Y-65500000D01*
X115050000Y-65500000D02*
X132850000Y-65500000D01*
X70700000Y-71100000D02*
X82700000Y-71100000D01*
X82700000Y-71100000D02*
X82700000Y-58300000D01*
X82700000Y-58300000D02*
X70700000Y-58300000D01*
X142950000Y-58900000D02*
X143150000Y-58400000D01*
X143150000Y-58400000D02*
X146350000Y-58400000D01*
X146350000Y-58400000D02*
X146550000Y-58900000D01*
X152350000Y-65500000D02*
X152350000Y-58900000D01*
X152350000Y-58900000D02*
X137150000Y-58900000D01*
X137150000Y-58900000D02*
X137150000Y-65500000D01*
X137150000Y-65500000D02*
X152350000Y-65500000D01*
D14*
G36*
X98698320Y-65052080D02*
X98385900Y-65166380D01*
X98070940Y-65280680D01*
X98043000Y-65387360D01*
X98027760Y-65435620D01*
X98009980Y-65488960D01*
X97987120Y-65552460D01*
X97956640Y-65633740D01*
X97913460Y-65737880D01*
X97870280Y-65842020D01*
X97865200Y-65864880D01*
X97865200Y-65890280D01*
X97875360Y-65928380D01*
X97893140Y-65981720D01*
X97928700Y-66057920D01*
X97976960Y-66162060D01*
X97989660Y-66192540D01*
X98037920Y-66291600D01*
X98076020Y-66380500D01*
X98106500Y-66451620D01*
X98126820Y-66497340D01*
X98129360Y-66512580D01*
X98116660Y-66530360D01*
X98081100Y-66573540D01*
X98025220Y-66631960D01*
X97954100Y-66705620D01*
X97890600Y-66769120D01*
X97651840Y-67005340D01*
X97341960Y-66858020D01*
X97032080Y-66713240D01*
X97006680Y-66725940D01*
X97006680Y-64693940D01*
X96991440Y-64516140D01*
X96938100Y-64312940D01*
X96854280Y-64130060D01*
X96745060Y-63970040D01*
X96615520Y-63832880D01*
X96465660Y-63718580D01*
X96303100Y-63634760D01*
X96127840Y-63573800D01*
X95944960Y-63543320D01*
X95759540Y-63540780D01*
X95574120Y-63571260D01*
X95391240Y-63632220D01*
X95218520Y-63726200D01*
X95053420Y-63853200D01*
X95022940Y-63883680D01*
X94888320Y-64043700D01*
X94786720Y-64218960D01*
X94718140Y-64401840D01*
X94685120Y-64592340D01*
X94680040Y-64782840D01*
X94707980Y-64970800D01*
X94768940Y-65151140D01*
X94857840Y-65321320D01*
X94974680Y-65476260D01*
X95122000Y-65613420D01*
X95297260Y-65727720D01*
X95350600Y-65755660D01*
X95548720Y-65826780D01*
X95749380Y-65862340D01*
X95957660Y-65857260D01*
X96171020Y-65814080D01*
X96198960Y-65806460D01*
X96384380Y-65727720D01*
X96552020Y-65618500D01*
X96701880Y-65478800D01*
X96826340Y-65318780D01*
X96920320Y-65138440D01*
X96940640Y-65082560D01*
X96991440Y-64886980D01*
X97006680Y-64693940D01*
X97006680Y-66725940D01*
X96854280Y-66802140D01*
X96760300Y-66845320D01*
X96663780Y-66888500D01*
X96577420Y-66921520D01*
X96549480Y-66931680D01*
X96422480Y-66972320D01*
X96305640Y-67302520D01*
X96191340Y-67635260D01*
X95843360Y-67635260D01*
X95708740Y-67632720D01*
X95609680Y-67630180D01*
X95541100Y-67627640D01*
X95500460Y-67620020D01*
X95485220Y-67612400D01*
X95482680Y-67609860D01*
X95475060Y-67584460D01*
X95454740Y-67528580D01*
X95426800Y-67449840D01*
X95393780Y-67353320D01*
X95368380Y-67282200D01*
X95264240Y-66979940D01*
X95167720Y-66944380D01*
X95111840Y-66921520D01*
X95033100Y-66888500D01*
X94939120Y-66845320D01*
X94862920Y-66809760D01*
X94654640Y-66708160D01*
X94433660Y-66812300D01*
X94339680Y-66858020D01*
X94245700Y-66898660D01*
X94169500Y-66934220D01*
X94121240Y-66957080D01*
X94027260Y-66997720D01*
X93783420Y-66753880D01*
X93537040Y-66510040D01*
X93684360Y-66200160D01*
X93829140Y-65895360D01*
X93737700Y-65715020D01*
X93691980Y-65621040D01*
X93651340Y-65524520D01*
X93615780Y-65438160D01*
X93605620Y-65407680D01*
X93562440Y-65280680D01*
X93229700Y-65166380D01*
X92894420Y-65049540D01*
X92899500Y-64699020D01*
X92904580Y-64348500D01*
X92983320Y-64320560D01*
X93148420Y-64264680D01*
X93277960Y-64221500D01*
X93379560Y-64185940D01*
X93455760Y-64155460D01*
X93509100Y-64132600D01*
X93544660Y-64112280D01*
X93567520Y-64094500D01*
X93580220Y-64076720D01*
X93585300Y-64058940D01*
X93587840Y-64051320D01*
X93600540Y-64010680D01*
X93628480Y-63942100D01*
X93666580Y-63858280D01*
X93709760Y-63764300D01*
X93717380Y-63749060D01*
X93836760Y-63512840D01*
X93689440Y-63205500D01*
X93542120Y-62898160D01*
X93788500Y-62651780D01*
X94032340Y-62405400D01*
X94337140Y-62547640D01*
X94436200Y-62595900D01*
X94525100Y-62636540D01*
X94596220Y-62669560D01*
X94641940Y-62687340D01*
X94657180Y-62692420D01*
X94682580Y-62684800D01*
X94733380Y-62664480D01*
X94799420Y-62634000D01*
X94817200Y-62626380D01*
X94911180Y-62585740D01*
X95017860Y-62542560D01*
X95106760Y-62514620D01*
X95259160Y-62468900D01*
X95340440Y-62242840D01*
X95376000Y-62146320D01*
X95409020Y-62054880D01*
X95436960Y-61976140D01*
X95454740Y-61930420D01*
X95490300Y-61844060D01*
X95840820Y-61836440D01*
X96193880Y-61831360D01*
X96247220Y-61983760D01*
X96282780Y-62080280D01*
X96320880Y-62189500D01*
X96358980Y-62291100D01*
X96361520Y-62298720D01*
X96422480Y-62461280D01*
X96587580Y-62514620D01*
X96686640Y-62550180D01*
X96790780Y-62588280D01*
X96882220Y-62626380D01*
X96892380Y-62631460D01*
X97029540Y-62694960D01*
X97339420Y-62547640D01*
X97649300Y-62397780D01*
X97890600Y-62639080D01*
X97969340Y-62717820D01*
X98035380Y-62786400D01*
X98088720Y-62842280D01*
X98121740Y-62880380D01*
X98129360Y-62893080D01*
X98121740Y-62915940D01*
X98098880Y-62966740D01*
X98065860Y-63042940D01*
X98022680Y-63134380D01*
X97984580Y-63215660D01*
X97837260Y-63517920D01*
X97900760Y-63647460D01*
X97936320Y-63728740D01*
X97976960Y-63827800D01*
X98015060Y-63929400D01*
X98022680Y-63949720D01*
X98081100Y-64124980D01*
X98383360Y-64234200D01*
X98688160Y-64348500D01*
X98693240Y-64699020D01*
X98698320Y-65052080D01*
X98698320Y-65052080D01*
X98698320Y-65052080D01*
G37*
X98698320Y-65052080D02*
X98385900Y-65166380D01*
X98070940Y-65280680D01*
X98043000Y-65387360D01*
X98027760Y-65435620D01*
X98009980Y-65488960D01*
X97987120Y-65552460D01*
X97956640Y-65633740D01*
X97913460Y-65737880D01*
X97870280Y-65842020D01*
X97865200Y-65864880D01*
X97865200Y-65890280D01*
X97875360Y-65928380D01*
X97893140Y-65981720D01*
X97928700Y-66057920D01*
X97976960Y-66162060D01*
X97989660Y-66192540D01*
X98037920Y-66291600D01*
X98076020Y-66380500D01*
X98106500Y-66451620D01*
X98126820Y-66497340D01*
X98129360Y-66512580D01*
X98116660Y-66530360D01*
X98081100Y-66573540D01*
X98025220Y-66631960D01*
X97954100Y-66705620D01*
X97890600Y-66769120D01*
X97651840Y-67005340D01*
X97341960Y-66858020D01*
X97032080Y-66713240D01*
X97006680Y-66725940D01*
X97006680Y-64693940D01*
X96991440Y-64516140D01*
X96938100Y-64312940D01*
X96854280Y-64130060D01*
X96745060Y-63970040D01*
X96615520Y-63832880D01*
X96465660Y-63718580D01*
X96303100Y-63634760D01*
X96127840Y-63573800D01*
X95944960Y-63543320D01*
X95759540Y-63540780D01*
X95574120Y-63571260D01*
X95391240Y-63632220D01*
X95218520Y-63726200D01*
X95053420Y-63853200D01*
X95022940Y-63883680D01*
X94888320Y-64043700D01*
X94786720Y-64218960D01*
X94718140Y-64401840D01*
X94685120Y-64592340D01*
X94680040Y-64782840D01*
X94707980Y-64970800D01*
X94768940Y-65151140D01*
X94857840Y-65321320D01*
X94974680Y-65476260D01*
X95122000Y-65613420D01*
X95297260Y-65727720D01*
X95350600Y-65755660D01*
X95548720Y-65826780D01*
X95749380Y-65862340D01*
X95957660Y-65857260D01*
X96171020Y-65814080D01*
X96198960Y-65806460D01*
X96384380Y-65727720D01*
X96552020Y-65618500D01*
X96701880Y-65478800D01*
X96826340Y-65318780D01*
X96920320Y-65138440D01*
X96940640Y-65082560D01*
X96991440Y-64886980D01*
X97006680Y-64693940D01*
X97006680Y-66725940D01*
X96854280Y-66802140D01*
X96760300Y-66845320D01*
X96663780Y-66888500D01*
X96577420Y-66921520D01*
X96549480Y-66931680D01*
X96422480Y-66972320D01*
X96305640Y-67302520D01*
X96191340Y-67635260D01*
X95843360Y-67635260D01*
X95708740Y-67632720D01*
X95609680Y-67630180D01*
X95541100Y-67627640D01*
X95500460Y-67620020D01*
X95485220Y-67612400D01*
X95482680Y-67609860D01*
X95475060Y-67584460D01*
X95454740Y-67528580D01*
X95426800Y-67449840D01*
X95393780Y-67353320D01*
X95368380Y-67282200D01*
X95264240Y-66979940D01*
X95167720Y-66944380D01*
X95111840Y-66921520D01*
X95033100Y-66888500D01*
X94939120Y-66845320D01*
X94862920Y-66809760D01*
X94654640Y-66708160D01*
X94433660Y-66812300D01*
X94339680Y-66858020D01*
X94245700Y-66898660D01*
X94169500Y-66934220D01*
X94121240Y-66957080D01*
X94027260Y-66997720D01*
X93783420Y-66753880D01*
X93537040Y-66510040D01*
X93684360Y-66200160D01*
X93829140Y-65895360D01*
X93737700Y-65715020D01*
X93691980Y-65621040D01*
X93651340Y-65524520D01*
X93615780Y-65438160D01*
X93605620Y-65407680D01*
X93562440Y-65280680D01*
X93229700Y-65166380D01*
X92894420Y-65049540D01*
X92899500Y-64699020D01*
X92904580Y-64348500D01*
X92983320Y-64320560D01*
X93148420Y-64264680D01*
X93277960Y-64221500D01*
X93379560Y-64185940D01*
X93455760Y-64155460D01*
X93509100Y-64132600D01*
X93544660Y-64112280D01*
X93567520Y-64094500D01*
X93580220Y-64076720D01*
X93585300Y-64058940D01*
X93587840Y-64051320D01*
X93600540Y-64010680D01*
X93628480Y-63942100D01*
X93666580Y-63858280D01*
X93709760Y-63764300D01*
X93717380Y-63749060D01*
X93836760Y-63512840D01*
X93689440Y-63205500D01*
X93542120Y-62898160D01*
X93788500Y-62651780D01*
X94032340Y-62405400D01*
X94337140Y-62547640D01*
X94436200Y-62595900D01*
X94525100Y-62636540D01*
X94596220Y-62669560D01*
X94641940Y-62687340D01*
X94657180Y-62692420D01*
X94682580Y-62684800D01*
X94733380Y-62664480D01*
X94799420Y-62634000D01*
X94817200Y-62626380D01*
X94911180Y-62585740D01*
X95017860Y-62542560D01*
X95106760Y-62514620D01*
X95259160Y-62468900D01*
X95340440Y-62242840D01*
X95376000Y-62146320D01*
X95409020Y-62054880D01*
X95436960Y-61976140D01*
X95454740Y-61930420D01*
X95490300Y-61844060D01*
X95840820Y-61836440D01*
X96193880Y-61831360D01*
X96247220Y-61983760D01*
X96282780Y-62080280D01*
X96320880Y-62189500D01*
X96358980Y-62291100D01*
X96361520Y-62298720D01*
X96422480Y-62461280D01*
X96587580Y-62514620D01*
X96686640Y-62550180D01*
X96790780Y-62588280D01*
X96882220Y-62626380D01*
X96892380Y-62631460D01*
X97029540Y-62694960D01*
X97339420Y-62547640D01*
X97649300Y-62397780D01*
X97890600Y-62639080D01*
X97969340Y-62717820D01*
X98035380Y-62786400D01*
X98088720Y-62842280D01*
X98121740Y-62880380D01*
X98129360Y-62893080D01*
X98121740Y-62915940D01*
X98098880Y-62966740D01*
X98065860Y-63042940D01*
X98022680Y-63134380D01*
X97984580Y-63215660D01*
X97837260Y-63517920D01*
X97900760Y-63647460D01*
X97936320Y-63728740D01*
X97976960Y-63827800D01*
X98015060Y-63929400D01*
X98022680Y-63949720D01*
X98081100Y-64124980D01*
X98383360Y-64234200D01*
X98688160Y-64348500D01*
X98693240Y-64699020D01*
X98698320Y-65052080D01*
X98698320Y-65052080D01*
G36*
X100941140Y-61734840D02*
X100864940Y-61915180D01*
X100791280Y-62092980D01*
X100595700Y-62087900D01*
X100400120Y-62085360D01*
X100268040Y-62217440D01*
X100135960Y-62352060D01*
X100141040Y-62517160D01*
X100143580Y-62595900D01*
X100146120Y-62664480D01*
X100151200Y-62705120D01*
X100153740Y-62712740D01*
X100148660Y-62727980D01*
X100125800Y-62745760D01*
X100082620Y-62771160D01*
X100011500Y-62801640D01*
X99993720Y-62809260D01*
X99993720Y-61303040D01*
X99981020Y-61160800D01*
X99937840Y-61021100D01*
X99861640Y-60891560D01*
X99777820Y-60797580D01*
X99658440Y-60708680D01*
X99536520Y-60652800D01*
X99399360Y-60627400D01*
X99292680Y-60627400D01*
X99152980Y-60645180D01*
X99033600Y-60688360D01*
X98926920Y-60759480D01*
X98835480Y-60848380D01*
X98744040Y-60972840D01*
X98688160Y-61102380D01*
X98665300Y-61237000D01*
X98670380Y-61369080D01*
X98700860Y-61496080D01*
X98756740Y-61612920D01*
X98835480Y-61719600D01*
X98932000Y-61811040D01*
X99043760Y-61882160D01*
X99168220Y-61927880D01*
X99302840Y-61948200D01*
X99445080Y-61935500D01*
X99592400Y-61889780D01*
X99607640Y-61884700D01*
X99739720Y-61803420D01*
X99846400Y-61699280D01*
X99925140Y-61577360D01*
X99973400Y-61442740D01*
X99993720Y-61303040D01*
X99993720Y-62809260D01*
X99909900Y-62844820D01*
X99818460Y-62882920D01*
X99795600Y-62870220D01*
X99757500Y-62837200D01*
X99706700Y-62783860D01*
X99676220Y-62745760D01*
X99554300Y-62600980D01*
X99379040Y-62603520D01*
X99206320Y-62606060D01*
X99064080Y-62745760D01*
X99000580Y-62806720D01*
X98949780Y-62852440D01*
X98914220Y-62880380D01*
X98901520Y-62885460D01*
X98876120Y-62877840D01*
X98822780Y-62860060D01*
X98751660Y-62834660D01*
X98700860Y-62814340D01*
X98517980Y-62745760D01*
X98523060Y-62550180D01*
X98528140Y-62357140D01*
X98393520Y-62219980D01*
X98256360Y-62082820D01*
X98060780Y-62090440D01*
X97865200Y-62098060D01*
X97789000Y-61915180D01*
X97715340Y-61732300D01*
X97827100Y-61633240D01*
X97888060Y-61579900D01*
X97938860Y-61534180D01*
X97974420Y-61506240D01*
X97976960Y-61506240D01*
X97994740Y-61488460D01*
X98004900Y-61457980D01*
X98009980Y-61409720D01*
X98012520Y-61336060D01*
X98015060Y-61290340D01*
X98015060Y-61102380D01*
X97867740Y-60965220D01*
X97717880Y-60828060D01*
X97794080Y-60652800D01*
X97870280Y-60475000D01*
X98060780Y-60482620D01*
X98251280Y-60487700D01*
X98390980Y-60348000D01*
X98530680Y-60208300D01*
X98530680Y-60010180D01*
X98530680Y-59814600D01*
X98705940Y-59746020D01*
X98878660Y-59677440D01*
X99008200Y-59817140D01*
X99137740Y-59956840D01*
X99328240Y-59959380D01*
X99518740Y-59964460D01*
X99640660Y-59824760D01*
X99696540Y-59766340D01*
X99744800Y-59718080D01*
X99780360Y-59690140D01*
X99790520Y-59687600D01*
X99821000Y-59695220D01*
X99876880Y-59713000D01*
X99948000Y-59740940D01*
X99975940Y-59753640D01*
X100133420Y-59819680D01*
X100128340Y-60012720D01*
X100123260Y-60208300D01*
X100265500Y-60348000D01*
X100405200Y-60490240D01*
X100593160Y-60477540D01*
X100781120Y-60464840D01*
X100852240Y-60632480D01*
X100882720Y-60708680D01*
X100908120Y-60772180D01*
X100920820Y-60815360D01*
X100923360Y-60825520D01*
X100910660Y-60845840D01*
X100872560Y-60889020D01*
X100819220Y-60939820D01*
X100786200Y-60970300D01*
X100649040Y-61094760D01*
X100649040Y-61282720D01*
X100649040Y-61473220D01*
X100796360Y-61605300D01*
X100941140Y-61734840D01*
X100941140Y-61734840D01*
X100941140Y-61734840D01*
G37*
X100941140Y-61734840D02*
X100864940Y-61915180D01*
X100791280Y-62092980D01*
X100595700Y-62087900D01*
X100400120Y-62085360D01*
X100268040Y-62217440D01*
X100135960Y-62352060D01*
X100141040Y-62517160D01*
X100143580Y-62595900D01*
X100146120Y-62664480D01*
X100151200Y-62705120D01*
X100153740Y-62712740D01*
X100148660Y-62727980D01*
X100125800Y-62745760D01*
X100082620Y-62771160D01*
X100011500Y-62801640D01*
X99993720Y-62809260D01*
X99993720Y-61303040D01*
X99981020Y-61160800D01*
X99937840Y-61021100D01*
X99861640Y-60891560D01*
X99777820Y-60797580D01*
X99658440Y-60708680D01*
X99536520Y-60652800D01*
X99399360Y-60627400D01*
X99292680Y-60627400D01*
X99152980Y-60645180D01*
X99033600Y-60688360D01*
X98926920Y-60759480D01*
X98835480Y-60848380D01*
X98744040Y-60972840D01*
X98688160Y-61102380D01*
X98665300Y-61237000D01*
X98670380Y-61369080D01*
X98700860Y-61496080D01*
X98756740Y-61612920D01*
X98835480Y-61719600D01*
X98932000Y-61811040D01*
X99043760Y-61882160D01*
X99168220Y-61927880D01*
X99302840Y-61948200D01*
X99445080Y-61935500D01*
X99592400Y-61889780D01*
X99607640Y-61884700D01*
X99739720Y-61803420D01*
X99846400Y-61699280D01*
X99925140Y-61577360D01*
X99973400Y-61442740D01*
X99993720Y-61303040D01*
X99993720Y-62809260D01*
X99909900Y-62844820D01*
X99818460Y-62882920D01*
X99795600Y-62870220D01*
X99757500Y-62837200D01*
X99706700Y-62783860D01*
X99676220Y-62745760D01*
X99554300Y-62600980D01*
X99379040Y-62603520D01*
X99206320Y-62606060D01*
X99064080Y-62745760D01*
X99000580Y-62806720D01*
X98949780Y-62852440D01*
X98914220Y-62880380D01*
X98901520Y-62885460D01*
X98876120Y-62877840D01*
X98822780Y-62860060D01*
X98751660Y-62834660D01*
X98700860Y-62814340D01*
X98517980Y-62745760D01*
X98523060Y-62550180D01*
X98528140Y-62357140D01*
X98393520Y-62219980D01*
X98256360Y-62082820D01*
X98060780Y-62090440D01*
X97865200Y-62098060D01*
X97789000Y-61915180D01*
X97715340Y-61732300D01*
X97827100Y-61633240D01*
X97888060Y-61579900D01*
X97938860Y-61534180D01*
X97974420Y-61506240D01*
X97976960Y-61506240D01*
X97994740Y-61488460D01*
X98004900Y-61457980D01*
X98009980Y-61409720D01*
X98012520Y-61336060D01*
X98015060Y-61290340D01*
X98015060Y-61102380D01*
X97867740Y-60965220D01*
X97717880Y-60828060D01*
X97794080Y-60652800D01*
X97870280Y-60475000D01*
X98060780Y-60482620D01*
X98251280Y-60487700D01*
X98390980Y-60348000D01*
X98530680Y-60208300D01*
X98530680Y-60010180D01*
X98530680Y-59814600D01*
X98705940Y-59746020D01*
X98878660Y-59677440D01*
X99008200Y-59817140D01*
X99137740Y-59956840D01*
X99328240Y-59959380D01*
X99518740Y-59964460D01*
X99640660Y-59824760D01*
X99696540Y-59766340D01*
X99744800Y-59718080D01*
X99780360Y-59690140D01*
X99790520Y-59687600D01*
X99821000Y-59695220D01*
X99876880Y-59713000D01*
X99948000Y-59740940D01*
X99975940Y-59753640D01*
X100133420Y-59819680D01*
X100128340Y-60012720D01*
X100123260Y-60208300D01*
X100265500Y-60348000D01*
X100405200Y-60490240D01*
X100593160Y-60477540D01*
X100781120Y-60464840D01*
X100852240Y-60632480D01*
X100882720Y-60708680D01*
X100908120Y-60772180D01*
X100920820Y-60815360D01*
X100923360Y-60825520D01*
X100910660Y-60845840D01*
X100872560Y-60889020D01*
X100819220Y-60939820D01*
X100786200Y-60970300D01*
X100649040Y-61094760D01*
X100649040Y-61282720D01*
X100649040Y-61473220D01*
X100796360Y-61605300D01*
X100941140Y-61734840D01*
X100941140Y-61734840D01*
D12*
X151535715Y-71457143D02*
X151488096Y-71504762D01*
X151345239Y-71552381D01*
X151250001Y-71552381D01*
X151107143Y-71504762D01*
X151011905Y-71409524D01*
X150964286Y-71314286D01*
X150916667Y-71123810D01*
X150916667Y-70980952D01*
X150964286Y-70790476D01*
X151011905Y-70695238D01*
X151107143Y-70600000D01*
X151250001Y-70552381D01*
X151345239Y-70552381D01*
X151488096Y-70600000D01*
X151535715Y-70647619D01*
X152154762Y-70552381D02*
X152345239Y-70552381D01*
X152440477Y-70600000D01*
X152535715Y-70695238D01*
X152583334Y-70885714D01*
X152583334Y-71219048D01*
X152535715Y-71409524D01*
X152440477Y-71504762D01*
X152345239Y-71552381D01*
X152154762Y-71552381D01*
X152059524Y-71504762D01*
X151964286Y-71409524D01*
X151916667Y-71219048D01*
X151916667Y-70885714D01*
X151964286Y-70695238D01*
X152059524Y-70600000D01*
X152154762Y-70552381D01*
X153011905Y-71552381D02*
X153011905Y-70552381D01*
X153583334Y-71552381D01*
X153583334Y-70552381D01*
X154583334Y-71552381D02*
X154011905Y-71552381D01*
X154297619Y-71552381D02*
X154297619Y-70552381D01*
X154202381Y-70695238D01*
X154107143Y-70790476D01*
X154011905Y-70838095D01*
X80711905Y-78452381D02*
X80711905Y-77452381D01*
X81092858Y-77452381D01*
X81188096Y-77500000D01*
X81235715Y-77547619D01*
X81283334Y-77642857D01*
X81283334Y-77785714D01*
X81235715Y-77880952D01*
X81188096Y-77928571D01*
X81092858Y-77976190D01*
X80711905Y-77976190D01*
X82235715Y-78452381D02*
X81664286Y-78452381D01*
X81950000Y-78452381D02*
X81950000Y-77452381D01*
X81854762Y-77595238D01*
X81759524Y-77690476D01*
X81664286Y-77738095D01*
X139811905Y-71802381D02*
X139811905Y-70802381D01*
X140192858Y-70802381D01*
X140288096Y-70850000D01*
X140335715Y-70897619D01*
X140383334Y-70992857D01*
X140383334Y-71135714D01*
X140335715Y-71230952D01*
X140288096Y-71278571D01*
X140192858Y-71326190D01*
X139811905Y-71326190D01*
X140764286Y-70897619D02*
X140811905Y-70850000D01*
X140907143Y-70802381D01*
X141145239Y-70802381D01*
X141240477Y-70850000D01*
X141288096Y-70897619D01*
X141335715Y-70992857D01*
X141335715Y-71088095D01*
X141288096Y-71230952D01*
X140716667Y-71802381D01*
X141335715Y-71802381D01*
X92211905Y-72102381D02*
X92211905Y-71102381D01*
X92592858Y-71102381D01*
X92688096Y-71150000D01*
X92735715Y-71197619D01*
X92783334Y-71292857D01*
X92783334Y-71435714D01*
X92735715Y-71530952D01*
X92688096Y-71578571D01*
X92592858Y-71626190D01*
X92211905Y-71626190D01*
X93116667Y-71102381D02*
X93735715Y-71102381D01*
X93402381Y-71483333D01*
X93545239Y-71483333D01*
X93640477Y-71530952D01*
X93688096Y-71578571D01*
X93735715Y-71673810D01*
X93735715Y-71911905D01*
X93688096Y-72007143D01*
X93640477Y-72054762D01*
X93545239Y-72102381D01*
X93259524Y-72102381D01*
X93164286Y-72054762D01*
X93116667Y-72007143D01*
X122211905Y-71852381D02*
X122211905Y-70852381D01*
X122592858Y-70852381D01*
X122688096Y-70900000D01*
X122735715Y-70947619D01*
X122783334Y-71042857D01*
X122783334Y-71185714D01*
X122735715Y-71280952D01*
X122688096Y-71328571D01*
X122592858Y-71376190D01*
X122211905Y-71376190D01*
X123640477Y-71185714D02*
X123640477Y-71852381D01*
X123402381Y-70804762D02*
X123164286Y-71519048D01*
X123783334Y-71519048D01*
X155261905Y-64152381D02*
X155261905Y-63152381D01*
X155642858Y-63152381D01*
X155738096Y-63200000D01*
X155785715Y-63247619D01*
X155833334Y-63342857D01*
X155833334Y-63485714D01*
X155785715Y-63580952D01*
X155738096Y-63628571D01*
X155642858Y-63676190D01*
X155261905Y-63676190D01*
X156738096Y-63152381D02*
X156261905Y-63152381D01*
X156214286Y-63628571D01*
X156261905Y-63580952D01*
X156357143Y-63533333D01*
X156595239Y-63533333D01*
X156690477Y-63580952D01*
X156738096Y-63628571D01*
X156785715Y-63723810D01*
X156785715Y-63961905D01*
X156738096Y-64057143D01*
X156690477Y-64104762D01*
X156595239Y-64152381D01*
X156357143Y-64152381D01*
X156261905Y-64104762D01*
X156214286Y-64057143D01*
X123111905Y-67502381D02*
X123111905Y-66502381D01*
X123492858Y-66502381D01*
X123588096Y-66550000D01*
X123635715Y-66597619D01*
X123683334Y-66692857D01*
X123683334Y-66835714D01*
X123635715Y-66930952D01*
X123588096Y-66978571D01*
X123492858Y-67026190D01*
X123111905Y-67026190D01*
X124540477Y-66502381D02*
X124350000Y-66502381D01*
X124254762Y-66550000D01*
X124207143Y-66597619D01*
X124111905Y-66740476D01*
X124064286Y-66930952D01*
X124064286Y-67311905D01*
X124111905Y-67407143D01*
X124159524Y-67454762D01*
X124254762Y-67502381D01*
X124445239Y-67502381D01*
X124540477Y-67454762D01*
X124588096Y-67407143D01*
X124635715Y-67311905D01*
X124635715Y-67073810D01*
X124588096Y-66978571D01*
X124540477Y-66930952D01*
X124445239Y-66883333D01*
X124254762Y-66883333D01*
X124159524Y-66930952D01*
X124111905Y-66978571D01*
X124064286Y-67073810D01*
X83261905Y-64952381D02*
X83261905Y-63952381D01*
X83642858Y-63952381D01*
X83738096Y-64000000D01*
X83785715Y-64047619D01*
X83833334Y-64142857D01*
X83833334Y-64285714D01*
X83785715Y-64380952D01*
X83738096Y-64428571D01*
X83642858Y-64476190D01*
X83261905Y-64476190D01*
X84166667Y-63952381D02*
X84833334Y-63952381D01*
X84404762Y-64952381D01*
X143861905Y-67002381D02*
X143861905Y-66002381D01*
X144242858Y-66002381D01*
X144338096Y-66050000D01*
X144385715Y-66097619D01*
X144433334Y-66192857D01*
X144433334Y-66335714D01*
X144385715Y-66430952D01*
X144338096Y-66478571D01*
X144242858Y-66526190D01*
X143861905Y-66526190D01*
X145004762Y-66430952D02*
X144909524Y-66383333D01*
X144861905Y-66335714D01*
X144814286Y-66240476D01*
X144814286Y-66192857D01*
X144861905Y-66097619D01*
X144909524Y-66050000D01*
X145004762Y-66002381D01*
X145195239Y-66002381D01*
X145290477Y-66050000D01*
X145338096Y-66097619D01*
X145385715Y-66192857D01*
X145385715Y-66240476D01*
X145338096Y-66335714D01*
X145290477Y-66383333D01*
X145195239Y-66430952D01*
X145004762Y-66430952D01*
X144909524Y-66478571D01*
X144861905Y-66526190D01*
X144814286Y-66621429D01*
X144814286Y-66811905D01*
X144861905Y-66907143D01*
X144909524Y-66954762D01*
X145004762Y-67002381D01*
X145195239Y-67002381D01*
X145290477Y-66954762D01*
X145338096Y-66907143D01*
X145385715Y-66811905D01*
X145385715Y-66621429D01*
X145338096Y-66526190D01*
X145290477Y-66478571D01*
X145195239Y-66430952D01*
M02*
