G04 #@! TF.FileFunction,Profile,NP*
%FSLAX46Y46*%
G04 Gerber Fmt 4.6, Leading zero omitted, Abs format (unit mm)*
G04 Created by KiCad (PCBNEW 4.0.1-stable) date 2/14/2016 11:26:41 PM*
%MOMM*%
G01*
G04 APERTURE LIST*
%ADD10C,0.100000*%
%ADD11C,0.010000*%
G04 APERTURE END LIST*
D10*
D11*
X71000000Y-58000000D02*
G75*
G03X70000000Y-59000000I0J-1000000D01*
G01*
X70000000Y-79000000D02*
G75*
G03X71000000Y-80000000I1000000J0D01*
G01*
X169000000Y-80000000D02*
G75*
G03X170000000Y-79000000I0J1000000D01*
G01*
X170000000Y-59000000D02*
G75*
G03X169000000Y-58000000I-1000000J0D01*
G01*
X157700000Y-70900000D02*
X159700000Y-70900000D01*
X159700000Y-69900000D02*
X157700000Y-69900000D01*
X159700000Y-70900000D02*
G75*
G03X159700000Y-69900000I0J500000D01*
G01*
X157700000Y-69900000D02*
G75*
G03X157700000Y-70900000I0J-500000D01*
G01*
X161200000Y-74100000D02*
X161200000Y-76100000D01*
X162200000Y-76100000D02*
X162200000Y-74100000D01*
X161200000Y-76100000D02*
G75*
G03X162200000Y-76100000I500000J0D01*
G01*
X162200000Y-74100000D02*
G75*
G03X161200000Y-74100000I-500000J0D01*
G01*
X156200000Y-73850000D02*
X156200000Y-76350000D01*
X155200000Y-76350000D02*
X155200000Y-73850000D01*
X156200000Y-73850000D02*
G75*
G03X155200000Y-73850000I-500000J0D01*
G01*
X155200000Y-76350000D02*
G75*
G03X156200000Y-76350000I500000J0D01*
G01*
X71000000Y-58000000D02*
X169000000Y-58000000D01*
X170000000Y-79000000D02*
X170000000Y-59000000D01*
X70000000Y-79000000D02*
X70000000Y-59000000D01*
X71000000Y-80000000D02*
X169000000Y-80000000D01*
M02*
