G04 #@! TF.FileFunction,Legend,Bot*
%FSLAX46Y46*%
G04 Gerber Fmt 4.6, Leading zero omitted, Abs format (unit mm)*
G04 Created by KiCad (PCBNEW 4.0.1-stable) date 2/14/2016 11:26:41 PM*
%MOMM*%
G01*
G04 APERTURE LIST*
%ADD10C,0.100000*%
%ADD11C,0.150000*%
G04 APERTURE END LIST*
D10*
D11*
X107897000Y-66524000D02*
X107897000Y-63349000D01*
X107897000Y-63349000D02*
X109675000Y-63349000D01*
X109675000Y-63349000D02*
X109675000Y-66524000D01*
X103325000Y-66524000D02*
X103325000Y-63349000D01*
X103325000Y-63349000D02*
X105103000Y-63349000D01*
X105103000Y-63349000D02*
X105103000Y-66524000D01*
X109929000Y-72620000D02*
X109929000Y-66524000D01*
X109929000Y-66524000D02*
X103071000Y-66524000D01*
X103071000Y-66524000D02*
X103071000Y-74398000D01*
X103071000Y-74525000D02*
X109929000Y-74525000D01*
X109929000Y-74398000D02*
X109929000Y-72620000D01*
X99750000Y-66750000D02*
X99750000Y-65750000D01*
X101450000Y-65750000D02*
X101450000Y-66750000D01*
X111600000Y-66750000D02*
X111600000Y-65750000D01*
X113300000Y-65750000D02*
X113300000Y-66750000D01*
X97800000Y-75450000D02*
X97800000Y-75150000D01*
X97800000Y-75150000D02*
X95000000Y-75150000D01*
X95000000Y-75150000D02*
X95000000Y-75450000D01*
X95000000Y-76350000D02*
X95000000Y-76650000D01*
X95000000Y-76650000D02*
X97800000Y-76650000D01*
X97800000Y-76650000D02*
X97800000Y-76350000D01*
X96000000Y-75900000D02*
X95800000Y-75900000D01*
X96800000Y-75900000D02*
X97000000Y-75900000D01*
X96000000Y-75900000D02*
X96800000Y-76310000D01*
X96800000Y-76310000D02*
X96800000Y-75500000D01*
X96800000Y-75500000D02*
X96000000Y-75910000D01*
X96000000Y-76300000D02*
X96000000Y-75500000D01*
X88699760Y-62299160D02*
X88699760Y-62250900D01*
X89400800Y-59500180D02*
X88699760Y-59500180D01*
X88699760Y-59500180D02*
X88699760Y-59749100D01*
X88699760Y-62299160D02*
X88699760Y-62499820D01*
X88699760Y-62499820D02*
X89400800Y-62499820D01*
X88699760Y-66849160D02*
X88699760Y-66800900D01*
X89400800Y-64050180D02*
X88699760Y-64050180D01*
X88699760Y-64050180D02*
X88699760Y-64299100D01*
X88699760Y-66849160D02*
X88699760Y-67049820D01*
X88699760Y-67049820D02*
X89400800Y-67049820D01*
X88649760Y-71349160D02*
X88649760Y-71300900D01*
X89350800Y-68550180D02*
X88649760Y-68550180D01*
X88649760Y-68550180D02*
X88649760Y-68799100D01*
X88649760Y-71349160D02*
X88649760Y-71549820D01*
X88649760Y-71549820D02*
X89350800Y-71549820D01*
X81675000Y-75150000D02*
X81675000Y-73950000D01*
X79925000Y-73950000D02*
X79925000Y-75150000D01*
X82875000Y-73950000D02*
X82875000Y-75150000D01*
X84625000Y-75150000D02*
X84625000Y-73950000D01*
X107311905Y-75302381D02*
X107311905Y-76111905D01*
X107264286Y-76207143D01*
X107216667Y-76254762D01*
X107121429Y-76302381D01*
X106930952Y-76302381D01*
X106835714Y-76254762D01*
X106788095Y-76207143D01*
X106740476Y-76111905D01*
X106740476Y-75302381D01*
X105740476Y-76302381D02*
X106311905Y-76302381D01*
X106026191Y-76302381D02*
X106026191Y-75302381D01*
X106121429Y-75445238D01*
X106216667Y-75540476D01*
X106311905Y-75588095D01*
X100816666Y-70257143D02*
X100864285Y-70304762D01*
X101007142Y-70352381D01*
X101102380Y-70352381D01*
X101245238Y-70304762D01*
X101340476Y-70209524D01*
X101388095Y-70114286D01*
X101435714Y-69923810D01*
X101435714Y-69780952D01*
X101388095Y-69590476D01*
X101340476Y-69495238D01*
X101245238Y-69400000D01*
X101102380Y-69352381D01*
X101007142Y-69352381D01*
X100864285Y-69400000D01*
X100816666Y-69447619D01*
X99864285Y-70352381D02*
X100435714Y-70352381D01*
X100150000Y-70352381D02*
X100150000Y-69352381D01*
X100245238Y-69495238D01*
X100340476Y-69590476D01*
X100435714Y-69638095D01*
X112516666Y-70357143D02*
X112564285Y-70404762D01*
X112707142Y-70452381D01*
X112802380Y-70452381D01*
X112945238Y-70404762D01*
X113040476Y-70309524D01*
X113088095Y-70214286D01*
X113135714Y-70023810D01*
X113135714Y-69880952D01*
X113088095Y-69690476D01*
X113040476Y-69595238D01*
X112945238Y-69500000D01*
X112802380Y-69452381D01*
X112707142Y-69452381D01*
X112564285Y-69500000D01*
X112516666Y-69547619D01*
X112135714Y-69547619D02*
X112088095Y-69500000D01*
X111992857Y-69452381D01*
X111754761Y-69452381D01*
X111659523Y-69500000D01*
X111611904Y-69547619D01*
X111564285Y-69642857D01*
X111564285Y-69738095D01*
X111611904Y-69880952D01*
X112183333Y-70452381D01*
X111564285Y-70452381D01*
X97088095Y-78302381D02*
X97088095Y-77302381D01*
X96850000Y-77302381D01*
X96707142Y-77350000D01*
X96611904Y-77445238D01*
X96564285Y-77540476D01*
X96516666Y-77730952D01*
X96516666Y-77873810D01*
X96564285Y-78064286D01*
X96611904Y-78159524D01*
X96707142Y-78254762D01*
X96850000Y-78302381D01*
X97088095Y-78302381D01*
X95564285Y-78302381D02*
X96135714Y-78302381D01*
X95850000Y-78302381D02*
X95850000Y-77302381D01*
X95945238Y-77445238D01*
X96040476Y-77540476D01*
X96135714Y-77588095D01*
X86295238Y-61547619D02*
X86390476Y-61500000D01*
X86485714Y-61404762D01*
X86628571Y-61261905D01*
X86723810Y-61214286D01*
X86819048Y-61214286D01*
X86771429Y-61452381D02*
X86866667Y-61404762D01*
X86961905Y-61309524D01*
X87009524Y-61119048D01*
X87009524Y-60785714D01*
X86961905Y-60595238D01*
X86866667Y-60500000D01*
X86771429Y-60452381D01*
X86580952Y-60452381D01*
X86485714Y-60500000D01*
X86390476Y-60595238D01*
X86342857Y-60785714D01*
X86342857Y-61119048D01*
X86390476Y-61309524D01*
X86485714Y-61404762D01*
X86580952Y-61452381D01*
X86771429Y-61452381D01*
X85390476Y-61452381D02*
X85961905Y-61452381D01*
X85676191Y-61452381D02*
X85676191Y-60452381D01*
X85771429Y-60595238D01*
X85866667Y-60690476D01*
X85961905Y-60738095D01*
X86395238Y-66197619D02*
X86490476Y-66150000D01*
X86585714Y-66054762D01*
X86728571Y-65911905D01*
X86823810Y-65864286D01*
X86919048Y-65864286D01*
X86871429Y-66102381D02*
X86966667Y-66054762D01*
X87061905Y-65959524D01*
X87109524Y-65769048D01*
X87109524Y-65435714D01*
X87061905Y-65245238D01*
X86966667Y-65150000D01*
X86871429Y-65102381D01*
X86680952Y-65102381D01*
X86585714Y-65150000D01*
X86490476Y-65245238D01*
X86442857Y-65435714D01*
X86442857Y-65769048D01*
X86490476Y-65959524D01*
X86585714Y-66054762D01*
X86680952Y-66102381D01*
X86871429Y-66102381D01*
X86061905Y-65197619D02*
X86014286Y-65150000D01*
X85919048Y-65102381D01*
X85680952Y-65102381D01*
X85585714Y-65150000D01*
X85538095Y-65197619D01*
X85490476Y-65292857D01*
X85490476Y-65388095D01*
X85538095Y-65530952D01*
X86109524Y-66102381D01*
X85490476Y-66102381D01*
X86245238Y-70697619D02*
X86340476Y-70650000D01*
X86435714Y-70554762D01*
X86578571Y-70411905D01*
X86673810Y-70364286D01*
X86769048Y-70364286D01*
X86721429Y-70602381D02*
X86816667Y-70554762D01*
X86911905Y-70459524D01*
X86959524Y-70269048D01*
X86959524Y-69935714D01*
X86911905Y-69745238D01*
X86816667Y-69650000D01*
X86721429Y-69602381D01*
X86530952Y-69602381D01*
X86435714Y-69650000D01*
X86340476Y-69745238D01*
X86292857Y-69935714D01*
X86292857Y-70269048D01*
X86340476Y-70459524D01*
X86435714Y-70554762D01*
X86530952Y-70602381D01*
X86721429Y-70602381D01*
X85959524Y-69602381D02*
X85340476Y-69602381D01*
X85673810Y-69983333D01*
X85530952Y-69983333D01*
X85435714Y-70030952D01*
X85388095Y-70078571D01*
X85340476Y-70173810D01*
X85340476Y-70411905D01*
X85388095Y-70507143D01*
X85435714Y-70554762D01*
X85530952Y-70602381D01*
X85816667Y-70602381D01*
X85911905Y-70554762D01*
X85959524Y-70507143D01*
X80916666Y-78602381D02*
X81250000Y-78126190D01*
X81488095Y-78602381D02*
X81488095Y-77602381D01*
X81107142Y-77602381D01*
X81011904Y-77650000D01*
X80964285Y-77697619D01*
X80916666Y-77792857D01*
X80916666Y-77935714D01*
X80964285Y-78030952D01*
X81011904Y-78078571D01*
X81107142Y-78126190D01*
X81488095Y-78126190D01*
X79964285Y-78602381D02*
X80535714Y-78602381D01*
X80250000Y-78602381D02*
X80250000Y-77602381D01*
X80345238Y-77745238D01*
X80440476Y-77840476D01*
X80535714Y-77888095D01*
X83916666Y-78502381D02*
X84250000Y-78026190D01*
X84488095Y-78502381D02*
X84488095Y-77502381D01*
X84107142Y-77502381D01*
X84011904Y-77550000D01*
X83964285Y-77597619D01*
X83916666Y-77692857D01*
X83916666Y-77835714D01*
X83964285Y-77930952D01*
X84011904Y-77978571D01*
X84107142Y-78026190D01*
X84488095Y-78026190D01*
X83535714Y-77597619D02*
X83488095Y-77550000D01*
X83392857Y-77502381D01*
X83154761Y-77502381D01*
X83059523Y-77550000D01*
X83011904Y-77597619D01*
X82964285Y-77692857D01*
X82964285Y-77788095D01*
X83011904Y-77930952D01*
X83583333Y-78502381D01*
X82964285Y-78502381D01*
M02*
