G04 #@! TF.FileFunction,Copper,L1,Top,Signal*
%FSLAX46Y46*%
G04 Gerber Fmt 4.6, Leading zero omitted, Abs format (unit mm)*
G04 Created by KiCad (PCBNEW 4.0.1-stable) date 2/14/2016 11:26:41 PM*
%MOMM*%
G01*
G04 APERTURE LIST*
%ADD10C,0.100000*%
%ADD11O,3.000000X5.000000*%
%ADD12O,3.000000X4.500000*%
%ADD13O,4.500000X3.000000*%
%ADD14O,3.600000X2.800000*%
%ADD15C,1.800000*%
%ADD16C,0.800000*%
%ADD17C,0.700000*%
%ADD18C,1.500000*%
%ADD19C,2.500000*%
%ADD20C,0.300000*%
%ADD21C,0.250000*%
%ADD22C,0.500000*%
G04 APERTURE END LIST*
D10*
D11*
X155700000Y-75100000D03*
D12*
X161700000Y-75100000D03*
D13*
X158700000Y-70400000D03*
D14*
X77650000Y-73520000D03*
X77650000Y-77480000D03*
D15*
X135450000Y-75750000D03*
X145450000Y-75750000D03*
X142950000Y-75750000D03*
X140450000Y-75750000D03*
X137950000Y-75750000D03*
X91750000Y-75900000D03*
X89250000Y-75900000D03*
X86750000Y-75900000D03*
X117550000Y-75750000D03*
X127550000Y-75750000D03*
X125050000Y-75750000D03*
X122550000Y-75750000D03*
X120050000Y-75750000D03*
X160800000Y-66000000D03*
X160800000Y-63500000D03*
X160800000Y-61000000D03*
X130200000Y-62200000D03*
X117700000Y-62200000D03*
X127700000Y-62200000D03*
X120200000Y-62200000D03*
X122700000Y-62200000D03*
X125200000Y-62200000D03*
X79200000Y-60950000D03*
X79200000Y-63450000D03*
X79200000Y-65950000D03*
X79200000Y-68450000D03*
X149750000Y-62200000D03*
X139750000Y-62200000D03*
X142250000Y-62200000D03*
X144750000Y-62200000D03*
X147250000Y-62200000D03*
D16*
X102350000Y-65000000D03*
X110650000Y-65000000D03*
X97650000Y-73900000D03*
D17*
X131500000Y-74250000D03*
X91650000Y-64600000D03*
X91750000Y-69050000D03*
D18*
X77200000Y-73520000D02*
X92880000Y-73520000D01*
X93800000Y-73550000D02*
X102350000Y-65000000D01*
X92910000Y-73550000D02*
X93800000Y-73550000D01*
X92880000Y-73520000D02*
X92910000Y-73550000D01*
X77200000Y-73520000D02*
X77120000Y-73520000D01*
X110650000Y-65000000D02*
X112900000Y-65000000D01*
X139750000Y-64050000D02*
X139750000Y-62200000D01*
X137650000Y-66150000D02*
X139750000Y-64050000D01*
X114050000Y-66150000D02*
X137650000Y-66150000D01*
X112900000Y-65000000D02*
X114050000Y-66150000D01*
X106550000Y-65000000D02*
X110650000Y-65000000D01*
X97650000Y-73900000D02*
X106550000Y-65000000D01*
D19*
X154700000Y-75100000D02*
X153300000Y-75100000D01*
X153300000Y-75100000D02*
X150000000Y-78400000D01*
X150000000Y-78400000D02*
X78120000Y-78400000D01*
X78120000Y-78400000D02*
X77200000Y-77480000D01*
D20*
X145450000Y-75750000D02*
X145450000Y-73800000D01*
X155750000Y-63500000D02*
X160800000Y-63500000D01*
X145450000Y-73800000D02*
X155750000Y-63500000D01*
X122550000Y-75750000D02*
X122550000Y-74800000D01*
X122550000Y-74800000D02*
X123100000Y-74250000D01*
X123100000Y-74250000D02*
X131500000Y-74250000D01*
D21*
X122550000Y-75300000D02*
X122550000Y-75750000D01*
D20*
X120050000Y-75750000D02*
X120050000Y-74400000D01*
X120050000Y-74400000D02*
X121250000Y-73200000D01*
X121250000Y-73200000D02*
X133800000Y-73200000D01*
X133800000Y-73200000D02*
X135450000Y-74850000D01*
D21*
X135450000Y-74850000D02*
X135450000Y-75750000D01*
X130200000Y-62200000D02*
X130200000Y-62050000D01*
D20*
X130200000Y-62050000D02*
X131450000Y-60800000D01*
X131450000Y-60800000D02*
X145850000Y-60800000D01*
X145850000Y-60800000D02*
X147250000Y-62200000D01*
X120200000Y-62200000D02*
X120200000Y-63000000D01*
X120200000Y-63000000D02*
X119350000Y-63850000D01*
X119350000Y-63850000D02*
X116950000Y-63850000D01*
X116950000Y-63850000D02*
X114950000Y-61850000D01*
X114950000Y-61850000D02*
X112150000Y-61850000D01*
X94400000Y-61850000D02*
X112150000Y-61850000D01*
X91650000Y-64600000D02*
X94400000Y-61850000D01*
D21*
X122700000Y-62200000D02*
X122700000Y-62800000D01*
D20*
X122700000Y-62800000D02*
X119662500Y-64600000D01*
X91750000Y-65950000D02*
X91750000Y-69050000D01*
X95000000Y-62700000D02*
X91750000Y-65950000D01*
X114184856Y-62700000D02*
X95000000Y-62700000D01*
X116833340Y-64600000D02*
X114184856Y-62700000D01*
X119662500Y-64600000D02*
X116833340Y-64600000D01*
D22*
G36*
X158938648Y-58649742D02*
X158950000Y-58650000D01*
X161978300Y-58650000D01*
X163000000Y-59288563D01*
X163000000Y-61611239D01*
X162479479Y-62251881D01*
X161651621Y-62265022D01*
X161554735Y-62199671D01*
X161620924Y-62033056D01*
X160800000Y-61212132D01*
X159979076Y-62033056D01*
X160045743Y-62200875D01*
X159905359Y-62292740D01*
X159553875Y-62298319D01*
X158380262Y-61092986D01*
X159345954Y-61092986D01*
X159392033Y-61374870D01*
X159492220Y-61642347D01*
X159539345Y-61730509D01*
X159766944Y-61820924D01*
X160587868Y-61000000D01*
X161012132Y-61000000D01*
X161833056Y-61820924D01*
X162060655Y-61730509D01*
X162178948Y-61470531D01*
X162244248Y-61192471D01*
X162254046Y-60907014D01*
X162207967Y-60625130D01*
X162107780Y-60357653D01*
X162060655Y-60269491D01*
X161833056Y-60179076D01*
X161012132Y-61000000D01*
X160587868Y-61000000D01*
X159766944Y-60179076D01*
X159539345Y-60269491D01*
X159421052Y-60529469D01*
X159355752Y-60807529D01*
X159345954Y-61092986D01*
X158380262Y-61092986D01*
X157779118Y-60475596D01*
X157723439Y-60432600D01*
X157657985Y-60406818D01*
X157600000Y-60400000D01*
X146510660Y-60400000D01*
X146380330Y-60269670D01*
X146326840Y-60225733D01*
X146273725Y-60181165D01*
X146270267Y-60179264D01*
X146267221Y-60176762D01*
X146206174Y-60144028D01*
X146145456Y-60110648D01*
X146141698Y-60109456D01*
X146138222Y-60107592D01*
X146071954Y-60087332D01*
X146005934Y-60066389D01*
X146002016Y-60065950D01*
X145998243Y-60064796D01*
X145929284Y-60057791D01*
X145860472Y-60050073D01*
X145852769Y-60050019D01*
X145852618Y-60050004D01*
X145852478Y-60050017D01*
X145850000Y-60050000D01*
X131450000Y-60050000D01*
X131381093Y-60056757D01*
X131312036Y-60062799D01*
X131308249Y-60063899D01*
X131304324Y-60064284D01*
X131237963Y-60084319D01*
X131171474Y-60103636D01*
X131167977Y-60105449D01*
X131164197Y-60106590D01*
X131102982Y-60139139D01*
X131041521Y-60170997D01*
X131038440Y-60173457D01*
X131034956Y-60175309D01*
X130981254Y-60219107D01*
X130927126Y-60262317D01*
X130921639Y-60267728D01*
X130921524Y-60267822D01*
X130921436Y-60267928D01*
X130919670Y-60269670D01*
X130789340Y-60400000D01*
X115900000Y-60400000D01*
X115830352Y-60409898D01*
X115766218Y-60438807D01*
X115723223Y-60473223D01*
X115196446Y-61000000D01*
X83500000Y-61000000D01*
X83430352Y-61009898D01*
X83364468Y-61039926D01*
X81876353Y-62000000D01*
X80014193Y-62000000D01*
X80020924Y-61983056D01*
X79200000Y-61162132D01*
X78379076Y-61983056D01*
X78385807Y-62000000D01*
X77700000Y-62000000D01*
X77630352Y-62009898D01*
X77571376Y-62035627D01*
X77321376Y-62185627D01*
X77266745Y-62229948D01*
X77226625Y-62287734D01*
X77204192Y-62354409D01*
X77200000Y-62400000D01*
X77200000Y-69550000D01*
X77209898Y-69619648D01*
X77238807Y-69683782D01*
X77303193Y-69752355D01*
X79750000Y-71527489D01*
X79750000Y-72554637D01*
X79534925Y-72247207D01*
X79258083Y-71981969D01*
X78934815Y-71775837D01*
X78577544Y-71636732D01*
X78200000Y-71570000D01*
X77800000Y-71570000D01*
X77800000Y-73370000D01*
X77820000Y-73370000D01*
X77820000Y-73670000D01*
X77800000Y-73670000D01*
X77800000Y-75470000D01*
X78200000Y-75470000D01*
X78577544Y-75403268D01*
X78934815Y-75264163D01*
X79258083Y-75058031D01*
X79534925Y-74792793D01*
X79750000Y-74485363D01*
X79750000Y-75650000D01*
X78864542Y-75650000D01*
X78849497Y-75641729D01*
X78477436Y-75523705D01*
X78089537Y-75480195D01*
X78061613Y-75480000D01*
X77238387Y-75480000D01*
X76849918Y-75518090D01*
X76476246Y-75630908D01*
X76440339Y-75650000D01*
X75253554Y-75650000D01*
X74050000Y-74446446D01*
X74050000Y-73972297D01*
X75353180Y-73972297D01*
X75391032Y-74127651D01*
X75545298Y-74478642D01*
X75765075Y-74792793D01*
X76041917Y-75058031D01*
X76365185Y-75264163D01*
X76722456Y-75403268D01*
X77100000Y-75470000D01*
X77500000Y-75470000D01*
X77500000Y-73670000D01*
X75443718Y-73670000D01*
X75353180Y-73972297D01*
X74050000Y-73972297D01*
X74050000Y-73067703D01*
X75353180Y-73067703D01*
X75443718Y-73370000D01*
X77500000Y-73370000D01*
X77500000Y-71570000D01*
X77100000Y-71570000D01*
X76722456Y-71636732D01*
X76365185Y-71775837D01*
X76041917Y-71981969D01*
X75765075Y-72247207D01*
X75545298Y-72561358D01*
X75391032Y-72912349D01*
X75353180Y-73067703D01*
X74050000Y-73067703D01*
X74050000Y-66176306D01*
X74221316Y-66013164D01*
X74447404Y-65692664D01*
X74606934Y-65334353D01*
X74693830Y-64951879D01*
X74700086Y-64503890D01*
X74623903Y-64119139D01*
X74474439Y-63756514D01*
X74257388Y-63429825D01*
X74050000Y-63220984D01*
X74050000Y-61042986D01*
X77745954Y-61042986D01*
X77792033Y-61324870D01*
X77892220Y-61592347D01*
X77939345Y-61680509D01*
X78166944Y-61770924D01*
X78987868Y-60950000D01*
X79412132Y-60950000D01*
X80233056Y-61770924D01*
X80460655Y-61680509D01*
X80578948Y-61420531D01*
X80644248Y-61142471D01*
X80654046Y-60857014D01*
X80607967Y-60575130D01*
X80507780Y-60307653D01*
X80460655Y-60219491D01*
X80233056Y-60129076D01*
X79412132Y-60950000D01*
X78987868Y-60950000D01*
X78166944Y-60129076D01*
X77939345Y-60219491D01*
X77821052Y-60479469D01*
X77755752Y-60757529D01*
X77745954Y-61042986D01*
X74050000Y-61042986D01*
X74050000Y-60551794D01*
X74669734Y-59916944D01*
X78379076Y-59916944D01*
X79200000Y-60737868D01*
X79970924Y-59966944D01*
X159979076Y-59966944D01*
X160800000Y-60787868D01*
X161620924Y-59966944D01*
X161530509Y-59739345D01*
X161270531Y-59621052D01*
X160992471Y-59555752D01*
X160707014Y-59545954D01*
X160425130Y-59592033D01*
X160157653Y-59692220D01*
X160069491Y-59739345D01*
X159979076Y-59966944D01*
X79970924Y-59966944D01*
X80020924Y-59916944D01*
X79930509Y-59689345D01*
X79670531Y-59571052D01*
X79392471Y-59505752D01*
X79107014Y-59495954D01*
X78825130Y-59542033D01*
X78557653Y-59642220D01*
X78469491Y-59689345D01*
X78379076Y-59916944D01*
X74669734Y-59916944D01*
X75950441Y-58605000D01*
X157954324Y-58605000D01*
X158938648Y-58649742D01*
X158938648Y-58649742D01*
G37*
X158938648Y-58649742D02*
X158950000Y-58650000D01*
X161978300Y-58650000D01*
X163000000Y-59288563D01*
X163000000Y-61611239D01*
X162479479Y-62251881D01*
X161651621Y-62265022D01*
X161554735Y-62199671D01*
X161620924Y-62033056D01*
X160800000Y-61212132D01*
X159979076Y-62033056D01*
X160045743Y-62200875D01*
X159905359Y-62292740D01*
X159553875Y-62298319D01*
X158380262Y-61092986D01*
X159345954Y-61092986D01*
X159392033Y-61374870D01*
X159492220Y-61642347D01*
X159539345Y-61730509D01*
X159766944Y-61820924D01*
X160587868Y-61000000D01*
X161012132Y-61000000D01*
X161833056Y-61820924D01*
X162060655Y-61730509D01*
X162178948Y-61470531D01*
X162244248Y-61192471D01*
X162254046Y-60907014D01*
X162207967Y-60625130D01*
X162107780Y-60357653D01*
X162060655Y-60269491D01*
X161833056Y-60179076D01*
X161012132Y-61000000D01*
X160587868Y-61000000D01*
X159766944Y-60179076D01*
X159539345Y-60269491D01*
X159421052Y-60529469D01*
X159355752Y-60807529D01*
X159345954Y-61092986D01*
X158380262Y-61092986D01*
X157779118Y-60475596D01*
X157723439Y-60432600D01*
X157657985Y-60406818D01*
X157600000Y-60400000D01*
X146510660Y-60400000D01*
X146380330Y-60269670D01*
X146326840Y-60225733D01*
X146273725Y-60181165D01*
X146270267Y-60179264D01*
X146267221Y-60176762D01*
X146206174Y-60144028D01*
X146145456Y-60110648D01*
X146141698Y-60109456D01*
X146138222Y-60107592D01*
X146071954Y-60087332D01*
X146005934Y-60066389D01*
X146002016Y-60065950D01*
X145998243Y-60064796D01*
X145929284Y-60057791D01*
X145860472Y-60050073D01*
X145852769Y-60050019D01*
X145852618Y-60050004D01*
X145852478Y-60050017D01*
X145850000Y-60050000D01*
X131450000Y-60050000D01*
X131381093Y-60056757D01*
X131312036Y-60062799D01*
X131308249Y-60063899D01*
X131304324Y-60064284D01*
X131237963Y-60084319D01*
X131171474Y-60103636D01*
X131167977Y-60105449D01*
X131164197Y-60106590D01*
X131102982Y-60139139D01*
X131041521Y-60170997D01*
X131038440Y-60173457D01*
X131034956Y-60175309D01*
X130981254Y-60219107D01*
X130927126Y-60262317D01*
X130921639Y-60267728D01*
X130921524Y-60267822D01*
X130921436Y-60267928D01*
X130919670Y-60269670D01*
X130789340Y-60400000D01*
X115900000Y-60400000D01*
X115830352Y-60409898D01*
X115766218Y-60438807D01*
X115723223Y-60473223D01*
X115196446Y-61000000D01*
X83500000Y-61000000D01*
X83430352Y-61009898D01*
X83364468Y-61039926D01*
X81876353Y-62000000D01*
X80014193Y-62000000D01*
X80020924Y-61983056D01*
X79200000Y-61162132D01*
X78379076Y-61983056D01*
X78385807Y-62000000D01*
X77700000Y-62000000D01*
X77630352Y-62009898D01*
X77571376Y-62035627D01*
X77321376Y-62185627D01*
X77266745Y-62229948D01*
X77226625Y-62287734D01*
X77204192Y-62354409D01*
X77200000Y-62400000D01*
X77200000Y-69550000D01*
X77209898Y-69619648D01*
X77238807Y-69683782D01*
X77303193Y-69752355D01*
X79750000Y-71527489D01*
X79750000Y-72554637D01*
X79534925Y-72247207D01*
X79258083Y-71981969D01*
X78934815Y-71775837D01*
X78577544Y-71636732D01*
X78200000Y-71570000D01*
X77800000Y-71570000D01*
X77800000Y-73370000D01*
X77820000Y-73370000D01*
X77820000Y-73670000D01*
X77800000Y-73670000D01*
X77800000Y-75470000D01*
X78200000Y-75470000D01*
X78577544Y-75403268D01*
X78934815Y-75264163D01*
X79258083Y-75058031D01*
X79534925Y-74792793D01*
X79750000Y-74485363D01*
X79750000Y-75650000D01*
X78864542Y-75650000D01*
X78849497Y-75641729D01*
X78477436Y-75523705D01*
X78089537Y-75480195D01*
X78061613Y-75480000D01*
X77238387Y-75480000D01*
X76849918Y-75518090D01*
X76476246Y-75630908D01*
X76440339Y-75650000D01*
X75253554Y-75650000D01*
X74050000Y-74446446D01*
X74050000Y-73972297D01*
X75353180Y-73972297D01*
X75391032Y-74127651D01*
X75545298Y-74478642D01*
X75765075Y-74792793D01*
X76041917Y-75058031D01*
X76365185Y-75264163D01*
X76722456Y-75403268D01*
X77100000Y-75470000D01*
X77500000Y-75470000D01*
X77500000Y-73670000D01*
X75443718Y-73670000D01*
X75353180Y-73972297D01*
X74050000Y-73972297D01*
X74050000Y-73067703D01*
X75353180Y-73067703D01*
X75443718Y-73370000D01*
X77500000Y-73370000D01*
X77500000Y-71570000D01*
X77100000Y-71570000D01*
X76722456Y-71636732D01*
X76365185Y-71775837D01*
X76041917Y-71981969D01*
X75765075Y-72247207D01*
X75545298Y-72561358D01*
X75391032Y-72912349D01*
X75353180Y-73067703D01*
X74050000Y-73067703D01*
X74050000Y-66176306D01*
X74221316Y-66013164D01*
X74447404Y-65692664D01*
X74606934Y-65334353D01*
X74693830Y-64951879D01*
X74700086Y-64503890D01*
X74623903Y-64119139D01*
X74474439Y-63756514D01*
X74257388Y-63429825D01*
X74050000Y-63220984D01*
X74050000Y-61042986D01*
X77745954Y-61042986D01*
X77792033Y-61324870D01*
X77892220Y-61592347D01*
X77939345Y-61680509D01*
X78166944Y-61770924D01*
X78987868Y-60950000D01*
X79412132Y-60950000D01*
X80233056Y-61770924D01*
X80460655Y-61680509D01*
X80578948Y-61420531D01*
X80644248Y-61142471D01*
X80654046Y-60857014D01*
X80607967Y-60575130D01*
X80507780Y-60307653D01*
X80460655Y-60219491D01*
X80233056Y-60129076D01*
X79412132Y-60950000D01*
X78987868Y-60950000D01*
X78166944Y-60129076D01*
X77939345Y-60219491D01*
X77821052Y-60479469D01*
X77755752Y-60757529D01*
X77745954Y-61042986D01*
X74050000Y-61042986D01*
X74050000Y-60551794D01*
X74669734Y-59916944D01*
X78379076Y-59916944D01*
X79200000Y-60737868D01*
X79970924Y-59966944D01*
X159979076Y-59966944D01*
X160800000Y-60787868D01*
X161620924Y-59966944D01*
X161530509Y-59739345D01*
X161270531Y-59621052D01*
X160992471Y-59555752D01*
X160707014Y-59545954D01*
X160425130Y-59592033D01*
X160157653Y-59692220D01*
X160069491Y-59739345D01*
X159979076Y-59966944D01*
X79970924Y-59966944D01*
X80020924Y-59916944D01*
X79930509Y-59689345D01*
X79670531Y-59571052D01*
X79392471Y-59505752D01*
X79107014Y-59495954D01*
X78825130Y-59542033D01*
X78557653Y-59642220D01*
X78469491Y-59689345D01*
X78379076Y-59916944D01*
X74669734Y-59916944D01*
X75950441Y-58605000D01*
X157954324Y-58605000D01*
X158938648Y-58649742D01*
M02*
