M48
;DRILL file {KiCad 4.0.1-stable} date 2/14/2016 11:26:28 PM
;FORMAT={-:-/ absolute / metric / decimal}
FMAT,2
METRIC,TZ
T1C0.300
T2C0.350
T3C0.400
T4C1.000
T5C1.650
T6C2.800
%
G90
G05
M71
T1
X154.7Y-75.1
X158.7Y-69.4
X162.7Y-75.1
T2
X91.65Y-64.6
X91.75Y-69.05
X131.5Y-74.25
T3
X97.65Y-73.9
X102.35Y-65.
X110.65Y-65.
T4
X79.2Y-60.95
X79.2Y-63.45
X79.2Y-65.95
X79.2Y-68.45
X86.75Y-75.9
X89.25Y-75.9
X91.75Y-75.9
X117.55Y-75.75
X117.7Y-62.2
X120.05Y-75.75
X120.2Y-62.2
X122.55Y-75.75
X122.7Y-62.2
X125.05Y-75.75
X125.2Y-62.2
X127.55Y-75.75
X127.7Y-62.2
X130.2Y-62.2
X135.45Y-75.75
X137.95Y-75.75
X139.75Y-62.2
X140.45Y-75.75
X142.25Y-62.2
X142.95Y-75.75
X144.75Y-62.2
X145.45Y-75.75
X147.25Y-62.2
X149.75Y-62.2
X160.8Y-61.
X160.8Y-63.5
X160.8Y-66.
T5
X77.65Y-73.52
X77.65Y-77.48
T6
X72.7Y-64.7
X167.3Y-63.5
T0
M30
